%TF.GenerationSoftware,KiCad,Pcbnew,6.0.11+dfsg-1~bpo11+1*%
%TF.CreationDate,2025-01-21T21:26:14+01:00*%
%TF.ProjectId,Boelgene_v1d1,426f656c-6765-46e6-955f-763164312e6b,rev?*%
%TF.SameCoordinates,Original*%
%TF.FileFunction,Soldermask,Top*%
%TF.FilePolarity,Negative*%
%FSLAX46Y46*%
G04 Gerber Fmt 4.6, Leading zero omitted, Abs format (unit mm)*
G04 Created by KiCad (PCBNEW 6.0.11+dfsg-1~bpo11+1) date 2025-01-21 21:26:14*
%MOMM*%
%LPD*%
G01*
G04 APERTURE LIST*
G04 Aperture macros list*
%AMRoundRect*
0 Rectangle with rounded corners*
0 $1 Rounding radius*
0 $2 $3 $4 $5 $6 $7 $8 $9 X,Y pos of 4 corners*
0 Add a 4 corners polygon primitive as box body*
4,1,4,$2,$3,$4,$5,$6,$7,$8,$9,$2,$3,0*
0 Add four circle primitives for the rounded corners*
1,1,$1+$1,$2,$3*
1,1,$1+$1,$4,$5*
1,1,$1+$1,$6,$7*
1,1,$1+$1,$8,$9*
0 Add four rect primitives between the rounded corners*
20,1,$1+$1,$2,$3,$4,$5,0*
20,1,$1+$1,$4,$5,$6,$7,0*
20,1,$1+$1,$6,$7,$8,$9,0*
20,1,$1+$1,$8,$9,$2,$3,0*%
G04 Aperture macros list end*
%ADD10C,1.600000*%
%ADD11O,1.600000X1.600000*%
%ADD12R,2.000000X2.000000*%
%ADD13C,3.200000*%
%ADD14R,1.600000X1.600000*%
%ADD15RoundRect,0.250000X0.600000X0.750000X-0.600000X0.750000X-0.600000X-0.750000X0.600000X-0.750000X0*%
%ADD16O,1.700000X2.000000*%
%ADD17RoundRect,0.250000X-0.600000X-0.750000X0.600000X-0.750000X0.600000X0.750000X-0.600000X0.750000X0*%
%ADD18O,1.500000X1.500000*%
%ADD19O,1.800000X1.800000*%
%ADD20O,1.700000X1.700000*%
%ADD21R,1.700000X3.500000*%
%ADD22R,1.700000X1.700000*%
%ADD23R,3.500000X1.700000*%
%ADD24R,1.560000X1.560000*%
%ADD25C,1.560000*%
G04 APERTURE END LIST*
D10*
%TO.C,R3*%
X38100000Y-117856000D03*
D11*
X45720000Y-117856000D03*
%TD*%
D12*
%TO.C,TP18*%
X57912000Y-126492000D03*
%TD*%
D13*
%TO.C,H1*%
X31496000Y-81280000D03*
%TD*%
D12*
%TO.C,TP7*%
X105156000Y-107696000D03*
%TD*%
%TO.C,TP22*%
X43688000Y-84836000D03*
%TD*%
%TO.C,TP33*%
X59944000Y-81788000D03*
%TD*%
%TO.C,TP17*%
X54356000Y-126492000D03*
%TD*%
%TO.C,TP16*%
X50800000Y-126492000D03*
%TD*%
D14*
%TO.C,C6*%
X75379600Y-96012000D03*
D10*
X73379600Y-96012000D03*
%TD*%
D15*
%TO.C,J3*%
X93957000Y-87901000D03*
D16*
X91457000Y-87901000D03*
%TD*%
D15*
%TO.C,J4*%
X85070000Y-87901000D03*
D16*
X82570000Y-87901000D03*
%TD*%
D17*
%TO.C,J1*%
X106446000Y-114791000D03*
D16*
X108946000Y-114791000D03*
%TD*%
D12*
%TO.C,TP9*%
X53340000Y-83820000D03*
%TD*%
%TO.C,TP43*%
X33528000Y-98552000D03*
%TD*%
D15*
%TO.C,J5*%
X111760000Y-90424000D03*
D16*
X109260000Y-90424000D03*
%TD*%
D18*
%TO.C,U1*%
X37958000Y-114693000D03*
X37958000Y-109843000D03*
D19*
X34928000Y-114993000D03*
X34928000Y-109543000D03*
D20*
X34798000Y-121158000D03*
D21*
X34798000Y-122058000D03*
X37338000Y-122058000D03*
D20*
X37338000Y-121158000D03*
D22*
X39878000Y-121158000D03*
D21*
X39878000Y-122058000D03*
D20*
X42418000Y-121158000D03*
D21*
X42418000Y-122058000D03*
X44958000Y-122058000D03*
D20*
X44958000Y-121158000D03*
D21*
X47498000Y-122058000D03*
D20*
X47498000Y-121158000D03*
D21*
X50038000Y-122058000D03*
D20*
X50038000Y-121158000D03*
D21*
X52578000Y-122058000D03*
D22*
X52578000Y-121158000D03*
D20*
X55118000Y-121158000D03*
D21*
X55118000Y-122058000D03*
D20*
X57658000Y-121158000D03*
D21*
X57658000Y-122058000D03*
X60198000Y-122058000D03*
D20*
X60198000Y-121158000D03*
X62738000Y-121158000D03*
D21*
X62738000Y-122058000D03*
X65278000Y-122058000D03*
D22*
X65278000Y-121158000D03*
D21*
X67818000Y-122058000D03*
D20*
X67818000Y-121158000D03*
D21*
X70358000Y-122058000D03*
D20*
X70358000Y-121158000D03*
X72898000Y-121158000D03*
D21*
X72898000Y-122058000D03*
D20*
X75438000Y-121158000D03*
D21*
X75438000Y-122058000D03*
X77978000Y-122058000D03*
D22*
X77978000Y-121158000D03*
D21*
X80518000Y-122058000D03*
D20*
X80518000Y-121158000D03*
D21*
X83058000Y-122058000D03*
D20*
X83058000Y-121158000D03*
X83058000Y-103378000D03*
D21*
X83058000Y-102478000D03*
D20*
X80518000Y-103378000D03*
D21*
X80518000Y-102478000D03*
D22*
X77978000Y-103378000D03*
D21*
X77978000Y-102478000D03*
D20*
X75438000Y-103378000D03*
D21*
X75438000Y-102478000D03*
X72898000Y-102478000D03*
D20*
X72898000Y-103378000D03*
D21*
X70358000Y-102478000D03*
D20*
X70358000Y-103378000D03*
X67818000Y-103378000D03*
D21*
X67818000Y-102478000D03*
X65278000Y-102478000D03*
D22*
X65278000Y-103378000D03*
D21*
X62738000Y-102478000D03*
D20*
X62738000Y-103378000D03*
X60198000Y-103378000D03*
D21*
X60198000Y-102478000D03*
D20*
X57658000Y-103378000D03*
D21*
X57658000Y-102478000D03*
X55118000Y-102478000D03*
D20*
X55118000Y-103378000D03*
D22*
X52578000Y-103378000D03*
D21*
X52578000Y-102478000D03*
D20*
X50038000Y-103378000D03*
D21*
X50038000Y-102478000D03*
X47498000Y-102478000D03*
D20*
X47498000Y-103378000D03*
D21*
X44958000Y-102478000D03*
D20*
X44958000Y-103378000D03*
X42418000Y-103378000D03*
D21*
X42418000Y-102478000D03*
D22*
X39878000Y-103378000D03*
D21*
X39878000Y-102478000D03*
D20*
X37338000Y-103378000D03*
D21*
X37338000Y-102478000D03*
D20*
X34798000Y-103378000D03*
D21*
X34798000Y-102478000D03*
D20*
X82828000Y-114808000D03*
D23*
X83728000Y-114808000D03*
D22*
X82828000Y-112268000D03*
D23*
X83728000Y-112268000D03*
X83728000Y-109728000D03*
D20*
X82828000Y-109728000D03*
%TD*%
D12*
%TO.C,TP24*%
X41148000Y-82296000D03*
%TD*%
%TO.C,TP10*%
X50800000Y-86360000D03*
%TD*%
D24*
%TO.C,RV2*%
X89916000Y-92456000D03*
D25*
X92416000Y-97456000D03*
X94916000Y-92456000D03*
%TD*%
D12*
%TO.C,TP3*%
X50800000Y-83820000D03*
%TD*%
%TO.C,TP8*%
X107696000Y-107696000D03*
%TD*%
D24*
%TO.C,RV3*%
X81280000Y-92456000D03*
D25*
X83780000Y-97456000D03*
X86280000Y-92456000D03*
%TD*%
D12*
%TO.C,TP13*%
X40132000Y-126492000D03*
%TD*%
D14*
%TO.C,C9*%
X87694900Y-119888000D03*
D10*
X90194900Y-119888000D03*
%TD*%
D12*
%TO.C,TP32*%
X56896000Y-81788000D03*
%TD*%
%TO.C,TP11*%
X48260000Y-83820000D03*
%TD*%
D24*
%TO.C,RV4*%
X107696000Y-95504000D03*
D25*
X110196000Y-100504000D03*
X112696000Y-95504000D03*
%TD*%
D14*
%TO.C,C2*%
X89481600Y-104140000D03*
D10*
X94481600Y-104140000D03*
%TD*%
D14*
%TO.C,C4*%
X49032000Y-93980000D03*
D10*
X54032000Y-93980000D03*
%TD*%
D12*
%TO.C,TP12*%
X105156000Y-105156000D03*
%TD*%
D10*
%TO.C,C5*%
X49276000Y-107188000D03*
D11*
X56776000Y-107188000D03*
%TD*%
D24*
%TO.C,RV1*%
X99568000Y-92456000D03*
D25*
X102068000Y-97456000D03*
X104568000Y-92456000D03*
%TD*%
D12*
%TO.C,TP23*%
X38608000Y-82296000D03*
%TD*%
D10*
%TO.C,R1*%
X56642000Y-117348000D03*
D11*
X49022000Y-117348000D03*
%TD*%
D12*
%TO.C,TP25*%
X38608000Y-84836000D03*
%TD*%
D10*
%TO.C,R2*%
X52070000Y-111252000D03*
D11*
X44450000Y-111252000D03*
%TD*%
D12*
%TO.C,TP2*%
X48260000Y-86360000D03*
%TD*%
%TO.C,TP14*%
X43688000Y-126492000D03*
%TD*%
D14*
%TO.C,C10*%
X87968900Y-112268000D03*
D10*
X90468900Y-112268000D03*
%TD*%
D12*
%TO.C,TP19*%
X61468000Y-126492000D03*
%TD*%
D13*
%TO.C,H3*%
X111760000Y-81280000D03*
%TD*%
D12*
%TO.C,TP42*%
X78740000Y-95504000D03*
%TD*%
%TO.C,TP6*%
X110236000Y-107696000D03*
%TD*%
%TO.C,TP35*%
X66040000Y-81788000D03*
%TD*%
%TO.C,TP5*%
X110236000Y-105156000D03*
%TD*%
%TO.C,TP20*%
X65024000Y-126492000D03*
%TD*%
D13*
%TO.C,H4*%
X111760000Y-128016000D03*
%TD*%
D12*
%TO.C,TP28*%
X57912000Y-97028000D03*
%TD*%
%TO.C,TP27*%
X56388000Y-90424000D03*
%TD*%
D15*
%TO.C,J2*%
X103101000Y-87918000D03*
D16*
X100601000Y-87918000D03*
%TD*%
D12*
%TO.C,TP44*%
X99568000Y-117856000D03*
%TD*%
%TO.C,TP21*%
X41148000Y-84836000D03*
%TD*%
D10*
%TO.C,C3*%
X59944000Y-116332000D03*
D11*
X59944000Y-108832000D03*
%TD*%
D12*
%TO.C,TP36*%
X69088000Y-81788000D03*
%TD*%
D14*
%TO.C,C11*%
X96359800Y-119834000D03*
D10*
X93859800Y-119834000D03*
%TD*%
D12*
%TO.C,TP26*%
X43688000Y-82296000D03*
%TD*%
D10*
%TO.C,C1*%
X39430000Y-107188000D03*
D11*
X46930000Y-107188000D03*
%TD*%
D12*
%TO.C,TP15*%
X47244000Y-126492000D03*
%TD*%
%TO.C,TP34*%
X62992000Y-81788000D03*
%TD*%
D14*
%TO.C,U2*%
X76947000Y-85100000D03*
D11*
X74407000Y-85100000D03*
X71867000Y-85100000D03*
X69327000Y-85100000D03*
X66787000Y-85100000D03*
X64247000Y-85100000D03*
X61707000Y-85100000D03*
X59167000Y-85100000D03*
X59167000Y-92720000D03*
X61707000Y-92720000D03*
X64247000Y-92720000D03*
X66787000Y-92720000D03*
X69327000Y-92720000D03*
X71867000Y-92720000D03*
X74407000Y-92720000D03*
X76947000Y-92720000D03*
%TD*%
D14*
%TO.C,C7*%
X37084000Y-97028000D03*
D10*
X39584000Y-97028000D03*
%TD*%
D14*
%TO.C,C12*%
X96201100Y-112268000D03*
D10*
X93701100Y-112268000D03*
%TD*%
D12*
%TO.C,TP45*%
X99568000Y-109728000D03*
%TD*%
%TO.C,TP1*%
X107696000Y-105156000D03*
%TD*%
D14*
%TO.C,C8*%
X45212000Y-97028000D03*
D10*
X42712000Y-97028000D03*
%TD*%
D13*
%TO.C,H2*%
X31496000Y-128016000D03*
%TD*%
D12*
%TO.C,TP4*%
X53340000Y-86360000D03*
%TD*%
M02*
