%TF.GenerationSoftware,KiCad,Pcbnew,6.0.11+dfsg-1~bpo11+1*%
%TF.CreationDate,2025-01-21T21:26:14+01:00*%
%TF.ProjectId,Boelgene_v1d1,426f656c-6765-46e6-955f-763164312e6b,rev?*%
%TF.SameCoordinates,Original*%
%TF.FileFunction,Legend,Bot*%
%TF.FilePolarity,Positive*%
%FSLAX46Y46*%
G04 Gerber Fmt 4.6, Leading zero omitted, Abs format (unit mm)*
G04 Created by KiCad (PCBNEW 6.0.11+dfsg-1~bpo11+1) date 2025-01-21 21:26:14*
%MOMM*%
%LPD*%
G01*
G04 APERTURE LIST*
%ADD10C,0.150000*%
%ADD11C,0.120000*%
G04 APERTURE END LIST*
D10*
X75692000Y-113284000D02*
X76728000Y-112268000D01*
X71608000Y-113202000D02*
X75692000Y-113284000D01*
%TO.C,U3*%
X77020380Y-110490095D02*
X77829904Y-110490095D01*
X77925142Y-110537714D01*
X77972761Y-110585333D01*
X78020380Y-110680571D01*
X78020380Y-110871047D01*
X77972761Y-110966285D01*
X77925142Y-111013904D01*
X77829904Y-111061523D01*
X77020380Y-111061523D01*
X77020380Y-111442476D02*
X77020380Y-112061523D01*
X77401333Y-111728190D01*
X77401333Y-111871047D01*
X77448952Y-111966285D01*
X77496571Y-112013904D01*
X77591809Y-112061523D01*
X77829904Y-112061523D01*
X77925142Y-112013904D01*
X77972761Y-111966285D01*
X78020380Y-111871047D01*
X78020380Y-111585333D01*
X77972761Y-111490095D01*
X77925142Y-111442476D01*
X79691333Y-108755333D02*
X78711333Y-108755333D01*
X78711333Y-109128666D01*
X78758000Y-109222000D01*
X78804666Y-109268666D01*
X78898000Y-109315333D01*
X79038000Y-109315333D01*
X79131333Y-109268666D01*
X79178000Y-109222000D01*
X79224666Y-109128666D01*
X79224666Y-108755333D01*
X78711333Y-109595333D02*
X78711333Y-110155333D01*
X79691333Y-109875333D02*
X78711333Y-109875333D01*
X79131333Y-110622000D02*
X79084666Y-110528666D01*
X79038000Y-110482000D01*
X78944666Y-110435333D01*
X78898000Y-110435333D01*
X78804666Y-110482000D01*
X78758000Y-110528666D01*
X78711333Y-110622000D01*
X78711333Y-110808666D01*
X78758000Y-110902000D01*
X78804666Y-110948666D01*
X78898000Y-110995333D01*
X78944666Y-110995333D01*
X79038000Y-110948666D01*
X79084666Y-110902000D01*
X79131333Y-110808666D01*
X79131333Y-110622000D01*
X79178000Y-110528666D01*
X79224666Y-110482000D01*
X79318000Y-110435333D01*
X79504666Y-110435333D01*
X79598000Y-110482000D01*
X79644666Y-110528666D01*
X79691333Y-110622000D01*
X79691333Y-110808666D01*
X79644666Y-110902000D01*
X79598000Y-110948666D01*
X79504666Y-110995333D01*
X79318000Y-110995333D01*
X79224666Y-110948666D01*
X79178000Y-110902000D01*
X79131333Y-110808666D01*
X78804666Y-111368666D02*
X78758000Y-111415333D01*
X78711333Y-111508666D01*
X78711333Y-111742000D01*
X78758000Y-111835333D01*
X78804666Y-111882000D01*
X78898000Y-111928666D01*
X78991333Y-111928666D01*
X79131333Y-111882000D01*
X79691333Y-111322000D01*
X79691333Y-111928666D01*
X79691333Y-112862000D02*
X79691333Y-112302000D01*
X79691333Y-112582000D02*
X78711333Y-112582000D01*
X78851333Y-112488666D01*
X78944666Y-112395333D01*
X78991333Y-112302000D01*
X79691333Y-113795333D02*
X79691333Y-113235333D01*
X79691333Y-113515333D02*
X78711333Y-113515333D01*
X78851333Y-113422000D01*
X78944666Y-113328666D01*
X78991333Y-113235333D01*
D11*
X71608000Y-111252000D02*
X71608000Y-109302000D01*
X71608000Y-111252000D02*
X71608000Y-113202000D01*
X76728000Y-111252000D02*
X76728000Y-109302000D01*
X76728000Y-111252000D02*
X76728000Y-114702000D01*
%TO.C,G150*%
G36*
X44946911Y-96038284D02*
G01*
X44985646Y-96065050D01*
X45030694Y-96115681D01*
X45049234Y-96140414D01*
X45145085Y-96261423D01*
X45270542Y-96411717D01*
X45421072Y-96586318D01*
X45592140Y-96780247D01*
X45779215Y-96988527D01*
X45977763Y-97206177D01*
X46183249Y-97428221D01*
X46391142Y-97649679D01*
X46596908Y-97865572D01*
X46796014Y-98070923D01*
X46983925Y-98260753D01*
X47132618Y-98408029D01*
X47695676Y-98945638D01*
X48249748Y-99442740D01*
X48793904Y-99898726D01*
X49327218Y-100312989D01*
X49848761Y-100684920D01*
X50357605Y-101013910D01*
X50852822Y-101299353D01*
X51333485Y-101540638D01*
X51798664Y-101737159D01*
X52247433Y-101888307D01*
X52678863Y-101993473D01*
X52697852Y-101997097D01*
X52976616Y-102039092D01*
X53297279Y-102069218D01*
X53653699Y-102087752D01*
X54039732Y-102094971D01*
X54449237Y-102091151D01*
X54876070Y-102076569D01*
X55314090Y-102051500D01*
X55757154Y-102016221D01*
X56199120Y-101971008D01*
X56633844Y-101916138D01*
X57055185Y-101851886D01*
X57457000Y-101778530D01*
X57676631Y-101733015D01*
X58251260Y-101596607D01*
X58788152Y-101442927D01*
X59285789Y-101272630D01*
X59742652Y-101086371D01*
X60157223Y-100884804D01*
X60527984Y-100668583D01*
X60853416Y-100438362D01*
X61132000Y-100194797D01*
X61148153Y-100178960D01*
X61212272Y-100114023D01*
X61239497Y-100073097D01*
X61226928Y-100047133D01*
X61171664Y-100027083D01*
X61070804Y-100003898D01*
X61037024Y-99993499D01*
X61020731Y-99975663D01*
X61044491Y-99958883D01*
X61102325Y-99946348D01*
X61188250Y-99941250D01*
X61192659Y-99941242D01*
X61264102Y-99944675D01*
X61298256Y-99958075D01*
X61307000Y-99985910D01*
X61307132Y-99989603D01*
X61321936Y-100017561D01*
X61367841Y-100039889D01*
X61454219Y-100061389D01*
X61530462Y-100077679D01*
X61880289Y-100163797D01*
X62257946Y-100273039D01*
X62652462Y-100401344D01*
X63052865Y-100544650D01*
X63448185Y-100698897D01*
X63827450Y-100860022D01*
X64179688Y-101023964D01*
X64493928Y-101186661D01*
X64871293Y-101411081D01*
X65251235Y-101671791D01*
X65628937Y-101967158D01*
X66007492Y-102299905D01*
X66389992Y-102672753D01*
X66779532Y-103088425D01*
X67179204Y-103549641D01*
X67239041Y-103621811D01*
X67354904Y-103764656D01*
X67476678Y-103918199D01*
X67600658Y-104077455D01*
X67723136Y-104237439D01*
X67840408Y-104393166D01*
X67948765Y-104539653D01*
X68044503Y-104671914D01*
X68123915Y-104784965D01*
X68183294Y-104873821D01*
X68218935Y-104933497D01*
X68227130Y-104959010D01*
X68221901Y-104958659D01*
X68185141Y-104939205D01*
X68122268Y-104898282D01*
X68043070Y-104842106D01*
X67905597Y-104742768D01*
X67695500Y-104596333D01*
X67484356Y-104454979D01*
X67278948Y-104322941D01*
X67086059Y-104204454D01*
X66912472Y-104103752D01*
X66764970Y-104025070D01*
X66650336Y-103972642D01*
X66524621Y-103928058D01*
X66327745Y-103870779D01*
X66104488Y-103816840D01*
X65868142Y-103769388D01*
X65632000Y-103731570D01*
X65554121Y-103722841D01*
X65439736Y-103713293D01*
X65301005Y-103703886D01*
X65145353Y-103694914D01*
X64980206Y-103686671D01*
X64812988Y-103679452D01*
X64651124Y-103673550D01*
X64502040Y-103669261D01*
X64373160Y-103666878D01*
X64271910Y-103666695D01*
X64205715Y-103669007D01*
X64182000Y-103674109D01*
X64182133Y-103674949D01*
X64192067Y-103706432D01*
X64215972Y-103776737D01*
X64251293Y-103878493D01*
X64295472Y-104004327D01*
X64345952Y-104146865D01*
X64583343Y-104838186D01*
X64870332Y-105746355D01*
X65130297Y-106656061D01*
X65361791Y-107561209D01*
X65563370Y-108455700D01*
X65733587Y-109333437D01*
X65870997Y-110188325D01*
X65974155Y-111014266D01*
X65987105Y-111162016D01*
X66000242Y-111382566D01*
X66010161Y-111635971D01*
X66016862Y-111913029D01*
X66020346Y-112204542D01*
X66020616Y-112501308D01*
X66017672Y-112794129D01*
X66011515Y-113073803D01*
X66002147Y-113331132D01*
X65989568Y-113556914D01*
X65973781Y-113741951D01*
X65938987Y-114045661D01*
X65830109Y-114816411D01*
X65692761Y-115566294D01*
X65523663Y-116312002D01*
X65319532Y-117070227D01*
X65310927Y-117099921D01*
X65247837Y-117314154D01*
X65182849Y-117528257D01*
X65114501Y-117746488D01*
X65041328Y-117973104D01*
X64961868Y-118212361D01*
X64874658Y-118468517D01*
X64778234Y-118745827D01*
X64671133Y-119048550D01*
X64551892Y-119380942D01*
X64419048Y-119747260D01*
X64271137Y-120151760D01*
X64106697Y-120598700D01*
X63984213Y-120930978D01*
X63860334Y-121267611D01*
X63750534Y-121566794D01*
X63653019Y-121833544D01*
X63565993Y-122072880D01*
X63487662Y-122289821D01*
X63416228Y-122489383D01*
X63349899Y-122676586D01*
X63286877Y-122856448D01*
X63225368Y-123033987D01*
X63163577Y-123214222D01*
X63099709Y-123402170D01*
X63031967Y-123602850D01*
X63021552Y-123633709D01*
X62833525Y-124166068D01*
X62635575Y-124678688D01*
X62423478Y-125180771D01*
X62193009Y-125681518D01*
X61939941Y-126190131D01*
X61660051Y-126715813D01*
X61349111Y-127267764D01*
X61151963Y-127603123D01*
X60823720Y-128138842D01*
X60466939Y-128696941D01*
X60086544Y-129270396D01*
X59687459Y-129852181D01*
X59274605Y-130435271D01*
X58852908Y-131012642D01*
X58427289Y-131577267D01*
X58002673Y-132122123D01*
X57583983Y-132640183D01*
X57509626Y-132729263D01*
X57446435Y-132802845D01*
X57401458Y-132852852D01*
X57381366Y-132871661D01*
X57379290Y-132867241D01*
X57372205Y-132824452D01*
X57362489Y-132741965D01*
X57350880Y-132626897D01*
X57338117Y-132486364D01*
X57324936Y-132327483D01*
X57310940Y-132157391D01*
X57256667Y-131578877D01*
X57190112Y-130968907D01*
X57112953Y-130340051D01*
X57026869Y-129704882D01*
X56933540Y-129075971D01*
X56834644Y-128465889D01*
X56731861Y-127887209D01*
X56691931Y-127674957D01*
X56619728Y-127302257D01*
X56547895Y-126947534D01*
X56474525Y-126602567D01*
X56397715Y-126259136D01*
X56315559Y-125909022D01*
X56226153Y-125544003D01*
X56127592Y-125155860D01*
X56017972Y-124736372D01*
X55895387Y-124277320D01*
X55836402Y-124049276D01*
X55741703Y-123643622D01*
X55649343Y-123197543D01*
X55559218Y-122710240D01*
X55471226Y-122180909D01*
X55385264Y-121608752D01*
X55301230Y-120992966D01*
X55219022Y-120332750D01*
X55138536Y-119627304D01*
X55059671Y-118875826D01*
X54982323Y-118077515D01*
X54906390Y-117231571D01*
X54831771Y-116337192D01*
X54758361Y-115393576D01*
X54715324Y-114811298D01*
X54665842Y-114114195D01*
X54618449Y-113414192D01*
X54572912Y-112707005D01*
X54528997Y-111988347D01*
X54486470Y-111253932D01*
X54445097Y-110499473D01*
X54404644Y-109720685D01*
X54364877Y-108913280D01*
X54325561Y-108072974D01*
X54286464Y-107195479D01*
X54247351Y-106276510D01*
X54207988Y-105311780D01*
X54203289Y-105197573D01*
X54196404Y-105041370D01*
X54189953Y-104907431D01*
X54184296Y-104802693D01*
X54179789Y-104734094D01*
X54176793Y-104708572D01*
X54170900Y-104712057D01*
X54132184Y-104741118D01*
X54060858Y-104796892D01*
X53960977Y-104876141D01*
X53836596Y-104975628D01*
X53691770Y-105092116D01*
X53530553Y-105222367D01*
X53357000Y-105363143D01*
X53292565Y-105415395D01*
X53114587Y-105558475D01*
X52952141Y-105687240D01*
X52809059Y-105798760D01*
X52689173Y-105890100D01*
X52596314Y-105958330D01*
X52534312Y-106000515D01*
X52507000Y-106013725D01*
X52493399Y-106007040D01*
X52440299Y-105976372D01*
X52352355Y-105923497D01*
X52234083Y-105851196D01*
X52090001Y-105762249D01*
X51924627Y-105659438D01*
X51742479Y-105545545D01*
X51548074Y-105423351D01*
X51418270Y-105341704D01*
X51233533Y-105226050D01*
X51065007Y-105121187D01*
X50917030Y-105029779D01*
X50793941Y-104954491D01*
X50700079Y-104897985D01*
X50639783Y-104862925D01*
X50617392Y-104851976D01*
X50611490Y-104871593D01*
X50592361Y-104937919D01*
X50560383Y-105049766D01*
X50515951Y-105205742D01*
X50459460Y-105404452D01*
X50391303Y-105644502D01*
X50311876Y-105924497D01*
X50221572Y-106243044D01*
X50120786Y-106598749D01*
X50009912Y-106990218D01*
X49889345Y-107416056D01*
X49759479Y-107874870D01*
X49620708Y-108365264D01*
X49473428Y-108885847D01*
X49318032Y-109435222D01*
X49154914Y-110011996D01*
X48984470Y-110614776D01*
X48807093Y-111242166D01*
X48623178Y-111892774D01*
X48433120Y-112565204D01*
X48237312Y-113258062D01*
X48036150Y-113969956D01*
X47830027Y-114699490D01*
X47619338Y-115445270D01*
X47404477Y-116205903D01*
X47185839Y-116979994D01*
X46963818Y-117766149D01*
X46764740Y-118470998D01*
X46545686Y-119246325D01*
X46330328Y-120008308D01*
X46119063Y-120755554D01*
X45912285Y-121486669D01*
X45710391Y-122200261D01*
X45513776Y-122894938D01*
X45322836Y-123569305D01*
X45137965Y-124221971D01*
X44959560Y-124851543D01*
X44788016Y-125456627D01*
X44623728Y-126035830D01*
X44467093Y-126587761D01*
X44318506Y-127111025D01*
X44178361Y-127604230D01*
X44047056Y-128065984D01*
X43924984Y-128494892D01*
X43812543Y-128889563D01*
X43710127Y-129248604D01*
X43618132Y-129570621D01*
X43536953Y-129854222D01*
X43466987Y-130098014D01*
X43408628Y-130300604D01*
X43362272Y-130460598D01*
X43328315Y-130576606D01*
X43307151Y-130647232D01*
X43299178Y-130671085D01*
X43274769Y-130656726D01*
X43220445Y-130607648D01*
X43141529Y-130527795D01*
X43041784Y-130421416D01*
X42924974Y-130292759D01*
X42794864Y-130146075D01*
X42655216Y-129985611D01*
X42509796Y-129815616D01*
X42362367Y-129640339D01*
X42216692Y-129464029D01*
X42076537Y-129290936D01*
X41919146Y-129091833D01*
X41484778Y-128516281D01*
X41062162Y-127918422D01*
X40654538Y-127303932D01*
X40265145Y-126678486D01*
X39897224Y-126047760D01*
X39554014Y-125417430D01*
X39238756Y-124793171D01*
X38954689Y-124180659D01*
X38705054Y-123585569D01*
X38493089Y-123013576D01*
X38363988Y-122621608D01*
X38190679Y-122031523D01*
X38037651Y-121424767D01*
X37903924Y-120796132D01*
X37788520Y-120140407D01*
X37690458Y-119452384D01*
X37608759Y-118726851D01*
X37542442Y-117958601D01*
X37540207Y-117927536D01*
X37528532Y-117727459D01*
X37518126Y-117485244D01*
X37509051Y-117207583D01*
X37501370Y-116901166D01*
X37495144Y-116572684D01*
X37490436Y-116228830D01*
X37487309Y-115876293D01*
X37485823Y-115521765D01*
X37486042Y-115171937D01*
X37488028Y-114833501D01*
X37491842Y-114513147D01*
X37497548Y-114217566D01*
X37505207Y-113953450D01*
X37509320Y-113837905D01*
X37523278Y-113464119D01*
X37538055Y-113093899D01*
X37553419Y-112731889D01*
X37569136Y-112382737D01*
X37584971Y-112051088D01*
X37600691Y-111741588D01*
X37616063Y-111458884D01*
X37630853Y-111207622D01*
X37644826Y-110992447D01*
X37657750Y-110818006D01*
X37669391Y-110688946D01*
X37690230Y-110499264D01*
X37773789Y-109877542D01*
X37882124Y-109248180D01*
X38016835Y-108603309D01*
X38179524Y-107935055D01*
X38371792Y-107235547D01*
X38385378Y-107189290D01*
X38427772Y-107050041D01*
X38482769Y-106874547D01*
X38548809Y-106667465D01*
X38624334Y-106433455D01*
X38707787Y-106177174D01*
X38797609Y-105903280D01*
X38892241Y-105616432D01*
X38990126Y-105321287D01*
X39089704Y-105022504D01*
X39189418Y-104724740D01*
X39287709Y-104432654D01*
X39383019Y-104150904D01*
X39473789Y-103884148D01*
X39558462Y-103637044D01*
X39635479Y-103414250D01*
X39703281Y-103220425D01*
X39760310Y-103060225D01*
X39805009Y-102938311D01*
X39835818Y-102859339D01*
X39962755Y-102570697D01*
X40161500Y-102162141D01*
X40387296Y-101738697D01*
X40634102Y-101310743D01*
X40895877Y-100888654D01*
X41166581Y-100482807D01*
X41440171Y-100103578D01*
X41499785Y-100022580D01*
X41564801Y-99926506D01*
X41598217Y-99864312D01*
X41599065Y-99837620D01*
X41590589Y-99833980D01*
X41535582Y-99816929D01*
X41441895Y-99791919D01*
X41317191Y-99760725D01*
X41169134Y-99725121D01*
X41005387Y-99686880D01*
X40833612Y-99647777D01*
X40661473Y-99609586D01*
X40496633Y-99574082D01*
X40346754Y-99543037D01*
X40219500Y-99518227D01*
X39936571Y-99468897D01*
X39524207Y-99411008D01*
X39146977Y-99376672D01*
X38799697Y-99365331D01*
X38698673Y-99366373D01*
X38499195Y-99376414D01*
X38311998Y-99399119D01*
X38128062Y-99436943D01*
X37938366Y-99492341D01*
X37733888Y-99567769D01*
X37505606Y-99665679D01*
X37244500Y-99788529D01*
X37188312Y-99815934D01*
X36907954Y-99957446D01*
X36637903Y-100102712D01*
X36361659Y-100260842D01*
X36062724Y-100440943D01*
X36059777Y-100442753D01*
X35960100Y-100502410D01*
X35876772Y-100549384D01*
X35818435Y-100578997D01*
X35793734Y-100586569D01*
X35793487Y-100586263D01*
X35805164Y-100561588D01*
X35847564Y-100507455D01*
X35915739Y-100429057D01*
X36004737Y-100331589D01*
X36109609Y-100220242D01*
X36225405Y-100100209D01*
X36347175Y-99976683D01*
X36469968Y-99854857D01*
X36588834Y-99739924D01*
X36698825Y-99637077D01*
X36768944Y-99573202D01*
X37138441Y-99246989D01*
X37484807Y-98959826D01*
X37811444Y-98709196D01*
X38121754Y-98492583D01*
X38419139Y-98307470D01*
X38707000Y-98151340D01*
X38779460Y-98115485D01*
X38930243Y-98044060D01*
X39086446Y-97974765D01*
X39252364Y-97906113D01*
X39432288Y-97836612D01*
X39630511Y-97764772D01*
X39851325Y-97689105D01*
X40099023Y-97608120D01*
X40377897Y-97520328D01*
X40692240Y-97424238D01*
X41046343Y-97318361D01*
X41444500Y-97201206D01*
X41503010Y-97184084D01*
X41940808Y-97054998D01*
X42336044Y-96936513D01*
X42693909Y-96826920D01*
X43019596Y-96724506D01*
X43318294Y-96627562D01*
X43595195Y-96534377D01*
X43855491Y-96443238D01*
X44104373Y-96352437D01*
X44347032Y-96260261D01*
X44588660Y-96165000D01*
X44621357Y-96151956D01*
X44737205Y-96106863D01*
X44835299Y-96070371D01*
X44906135Y-96045938D01*
X44940208Y-96037025D01*
X44946911Y-96038284D01*
G37*
G36*
X67847510Y-95730224D02*
G01*
X68053730Y-95801147D01*
X68240006Y-95860431D01*
X68409752Y-95909365D01*
X68566383Y-95949239D01*
X68623926Y-95961753D01*
X68753041Y-95986007D01*
X68913744Y-96013067D01*
X69094709Y-96041298D01*
X69284609Y-96069065D01*
X69472115Y-96094732D01*
X69645901Y-96116664D01*
X69794638Y-96133225D01*
X69907000Y-96142781D01*
X69917751Y-96143496D01*
X69989583Y-96153823D01*
X70018399Y-96171992D01*
X70003123Y-96198954D01*
X69942681Y-96235662D01*
X69835998Y-96283066D01*
X69682000Y-96342120D01*
X69255549Y-96497870D01*
X68687822Y-96703724D01*
X68158117Y-96893966D01*
X67667370Y-97068273D01*
X67216519Y-97226322D01*
X66806500Y-97367792D01*
X66438251Y-97492360D01*
X66112707Y-97599703D01*
X65830806Y-97689499D01*
X65593485Y-97761426D01*
X65401680Y-97815161D01*
X65154393Y-97880128D01*
X64760120Y-97982460D01*
X64381621Y-98079167D01*
X64021846Y-98169558D01*
X63683745Y-98252943D01*
X63370268Y-98328631D01*
X63084365Y-98395933D01*
X62828986Y-98454156D01*
X62607082Y-98502611D01*
X62421601Y-98540608D01*
X62275494Y-98567455D01*
X62171711Y-98582462D01*
X62113203Y-98584938D01*
X62075775Y-98585164D01*
X62042895Y-98602629D01*
X62007659Y-98646799D01*
X61960237Y-98726790D01*
X61818390Y-98949361D01*
X61619116Y-99201534D01*
X61386709Y-99444040D01*
X61222053Y-99592289D01*
X60965436Y-99790154D01*
X60693032Y-99959545D01*
X60396592Y-100104846D01*
X60067863Y-100230438D01*
X59698595Y-100340705D01*
X59518335Y-100386098D01*
X59193526Y-100455705D01*
X58850812Y-100513435D01*
X58479650Y-100560963D01*
X58069500Y-100599968D01*
X57951174Y-100607435D01*
X57686127Y-100612289D01*
X57400476Y-100604336D01*
X57111683Y-100584594D01*
X56837204Y-100554083D01*
X56594500Y-100513823D01*
X56515827Y-100497257D01*
X56224376Y-100422499D01*
X55964878Y-100330660D01*
X55731084Y-100217231D01*
X55516743Y-100077706D01*
X55315604Y-99907576D01*
X55121415Y-99702334D01*
X54927927Y-99457472D01*
X54728888Y-99168483D01*
X54696659Y-99118037D01*
X54587395Y-98934823D01*
X54469963Y-98722460D01*
X54351251Y-98494439D01*
X54238146Y-98264247D01*
X54137537Y-98045375D01*
X54056312Y-97851310D01*
X54014430Y-97747056D01*
X53973530Y-97651045D01*
X53941048Y-97580927D01*
X53921616Y-97547164D01*
X53891085Y-97528228D01*
X53813980Y-97498000D01*
X53699844Y-97461942D01*
X53555438Y-97421701D01*
X53387524Y-97378922D01*
X53202865Y-97335250D01*
X53008220Y-97292333D01*
X52810354Y-97251815D01*
X52616027Y-97215344D01*
X52432000Y-97184564D01*
X52422123Y-97183038D01*
X52300048Y-97165393D01*
X52185786Y-97151876D01*
X52069706Y-97141961D01*
X51942171Y-97135121D01*
X51793548Y-97130828D01*
X51614202Y-97128554D01*
X51394500Y-97127773D01*
X51107918Y-97129137D01*
X50859697Y-97134465D01*
X50642398Y-97144746D01*
X50446496Y-97160971D01*
X50262463Y-97184127D01*
X50080774Y-97215203D01*
X49891902Y-97255189D01*
X49686321Y-97305072D01*
X49660404Y-97309733D01*
X49649250Y-97301742D01*
X49655581Y-97272954D01*
X49681183Y-97215462D01*
X49727844Y-97121358D01*
X49792908Y-96989696D01*
X49907675Y-96742239D01*
X50003257Y-96509746D01*
X50083438Y-96280838D01*
X52142036Y-96280838D01*
X52144764Y-96373091D01*
X52179772Y-96475685D01*
X52238306Y-96569779D01*
X52311550Y-96636855D01*
X52396631Y-96675019D01*
X52516591Y-96689946D01*
X52632223Y-96666457D01*
X52734665Y-96609926D01*
X52815050Y-96525726D01*
X52864514Y-96419231D01*
X52874193Y-96295813D01*
X52871483Y-96274151D01*
X52833085Y-96152456D01*
X52764395Y-96060969D01*
X52673826Y-95999863D01*
X52569789Y-95969308D01*
X52460697Y-95969478D01*
X52354963Y-96000543D01*
X52261000Y-96062677D01*
X52187220Y-96156052D01*
X52142036Y-96280838D01*
X50083438Y-96280838D01*
X50084002Y-96279228D01*
X50154257Y-96037694D01*
X50218370Y-95772155D01*
X50280689Y-95469621D01*
X50309099Y-95320361D01*
X50317543Y-95273262D01*
X51007825Y-95273262D01*
X51026596Y-95391888D01*
X51086811Y-95499401D01*
X51188022Y-95586717D01*
X51198143Y-95592654D01*
X51315966Y-95632323D01*
X51440012Y-95627153D01*
X51530071Y-95591216D01*
X56437377Y-95591216D01*
X56437636Y-95766840D01*
X56456021Y-95919690D01*
X56474081Y-95994018D01*
X56560135Y-96215365D01*
X56610191Y-96295813D01*
X56687019Y-96419287D01*
X56848439Y-96599521D01*
X57038101Y-96749807D01*
X57249713Y-96863882D01*
X57476981Y-96935485D01*
X57532569Y-96945789D01*
X57783671Y-96962457D01*
X58029234Y-96930991D01*
X58264190Y-96852955D01*
X58483469Y-96729915D01*
X58682000Y-96563435D01*
X58795098Y-96437419D01*
X58920666Y-96248094D01*
X59003455Y-96044238D01*
X59046090Y-95818749D01*
X59051196Y-95564526D01*
X59050760Y-95555832D01*
X59013907Y-95301240D01*
X58933406Y-95067919D01*
X58812282Y-94859328D01*
X58653556Y-94678924D01*
X58460253Y-94530166D01*
X58235393Y-94416510D01*
X57982000Y-94341415D01*
X57797910Y-94318762D01*
X57562916Y-94331462D01*
X57334475Y-94387752D01*
X57118658Y-94484107D01*
X56921542Y-94617002D01*
X56749198Y-94782913D01*
X56607702Y-94978313D01*
X56503127Y-95199679D01*
X56485792Y-95254831D01*
X56477844Y-95294379D01*
X56453882Y-95413614D01*
X56437377Y-95591216D01*
X51530071Y-95591216D01*
X51560311Y-95579149D01*
X51666896Y-95490319D01*
X51674242Y-95481294D01*
X51711828Y-95399467D01*
X51728519Y-95294379D01*
X51722962Y-95185940D01*
X51693806Y-95094060D01*
X51678944Y-95069246D01*
X51596355Y-94983236D01*
X51490330Y-94928178D01*
X51373507Y-94906847D01*
X51258524Y-94922016D01*
X51158021Y-94976459D01*
X51096396Y-95039012D01*
X51030942Y-95152609D01*
X51007825Y-95273262D01*
X50317543Y-95273262D01*
X50358713Y-95043628D01*
X50396914Y-94802681D01*
X50424731Y-94589060D01*
X50443193Y-94394300D01*
X50453332Y-94209939D01*
X50456175Y-94027516D01*
X50455350Y-93697222D01*
X50237425Y-93592625D01*
X50185591Y-93567274D01*
X49801754Y-93349680D01*
X49433499Y-93088891D01*
X49085924Y-92790100D01*
X48764130Y-92458500D01*
X48473217Y-92099283D01*
X48218284Y-91717644D01*
X48004432Y-91318774D01*
X47987125Y-91281540D01*
X47878372Y-91021840D01*
X47771976Y-90725917D01*
X47671469Y-90405672D01*
X47580379Y-90073005D01*
X47502237Y-89739818D01*
X47486891Y-89659730D01*
X50800284Y-89659730D01*
X50803865Y-89829418D01*
X50821879Y-89993574D01*
X50853722Y-90133017D01*
X50933479Y-90324459D01*
X51063470Y-90528013D01*
X51227432Y-90706713D01*
X51418466Y-90854361D01*
X51629676Y-90964762D01*
X51854163Y-91031718D01*
X51883018Y-91036853D01*
X52139602Y-91055516D01*
X52389311Y-91026173D01*
X52626900Y-90950435D01*
X52847126Y-90829914D01*
X53044744Y-90666217D01*
X53150920Y-90547351D01*
X53283496Y-90345661D01*
X53373043Y-90132857D01*
X53421575Y-89913703D01*
X53431108Y-89692961D01*
X53403658Y-89475393D01*
X53341240Y-89265763D01*
X53245869Y-89068832D01*
X53119561Y-88889364D01*
X52964331Y-88732122D01*
X52782194Y-88601868D01*
X52575167Y-88503364D01*
X52345264Y-88441374D01*
X52094500Y-88420661D01*
X51859782Y-88442835D01*
X51623271Y-88510478D01*
X51406677Y-88620037D01*
X51214567Y-88767947D01*
X51051512Y-88950647D01*
X50922080Y-89164572D01*
X50830840Y-89406160D01*
X50811740Y-89503691D01*
X50800284Y-89659730D01*
X47486891Y-89659730D01*
X47440575Y-89418010D01*
X47430101Y-89346974D01*
X47412375Y-89173533D01*
X47400041Y-88973823D01*
X47393106Y-88758704D01*
X47391577Y-88539036D01*
X47395460Y-88325679D01*
X47404761Y-88129494D01*
X47419487Y-87961341D01*
X47439643Y-87832080D01*
X47464717Y-87722432D01*
X47571604Y-87356182D01*
X47712550Y-87004283D01*
X47891065Y-86659726D01*
X48110658Y-86315505D01*
X48374838Y-85964611D01*
X48472080Y-85846378D01*
X48811809Y-85469136D01*
X49158774Y-85139517D01*
X49515321Y-84855778D01*
X49883796Y-84616176D01*
X50266547Y-84418967D01*
X50665921Y-84262408D01*
X50760621Y-84232227D01*
X50935496Y-84182993D01*
X51113274Y-84139958D01*
X51281466Y-84105803D01*
X51427584Y-84083213D01*
X51539137Y-84074868D01*
X51563187Y-84074322D01*
X51630398Y-84067711D01*
X51669500Y-84056100D01*
X51671865Y-84052451D01*
X51679746Y-84008615D01*
X51686375Y-83919882D01*
X51691576Y-83790282D01*
X51695174Y-83623848D01*
X51696993Y-83424611D01*
X51697500Y-83347326D01*
X51709796Y-82881874D01*
X51738475Y-82454069D01*
X51784499Y-82055260D01*
X51848831Y-81676797D01*
X51932434Y-81310030D01*
X51953781Y-81228474D01*
X51995080Y-81080902D01*
X52038271Y-80943412D01*
X52086285Y-80809352D01*
X52142055Y-80672069D01*
X52208511Y-80524909D01*
X52288584Y-80361219D01*
X52385207Y-80174345D01*
X52501310Y-79957634D01*
X52639825Y-79704433D01*
X52682498Y-79627059D01*
X52792016Y-79429366D01*
X52911296Y-79215121D01*
X53037898Y-78988626D01*
X53169384Y-78754185D01*
X53303312Y-78516101D01*
X53437245Y-78278676D01*
X53568741Y-78046213D01*
X53695362Y-77823016D01*
X53814668Y-77613387D01*
X53924219Y-77421630D01*
X54021576Y-77252048D01*
X54104298Y-77108943D01*
X54169948Y-76996619D01*
X54216085Y-76919378D01*
X54240269Y-76881524D01*
X54246260Y-76873701D01*
X54255943Y-76864287D01*
X54264322Y-76864597D01*
X54271785Y-76878657D01*
X54278720Y-76910493D01*
X54285514Y-76964130D01*
X54292555Y-77043595D01*
X54300230Y-77152914D01*
X54308929Y-77296112D01*
X54319037Y-77477215D01*
X54330944Y-77700250D01*
X54345037Y-77969241D01*
X54363689Y-78308032D01*
X54401032Y-78900048D01*
X54443206Y-79472267D01*
X54489830Y-80021332D01*
X54540522Y-80543881D01*
X54594900Y-81036557D01*
X54652584Y-81495999D01*
X54713193Y-81918850D01*
X54776344Y-82301748D01*
X54841656Y-82641335D01*
X54908748Y-82934252D01*
X54933221Y-83029047D01*
X54960153Y-83126194D01*
X54988859Y-83219337D01*
X55022353Y-83316800D01*
X55063649Y-83426904D01*
X55115762Y-83557971D01*
X55181708Y-83718325D01*
X55264501Y-83916287D01*
X55365233Y-84169023D01*
X55481615Y-84489589D01*
X55598536Y-84839350D01*
X55712670Y-85207538D01*
X55820692Y-85583381D01*
X55919278Y-85956110D01*
X56005101Y-86314956D01*
X56015597Y-86361472D01*
X56043786Y-86484829D01*
X56068003Y-86588596D01*
X56085951Y-86663018D01*
X56095336Y-86698340D01*
X56108099Y-86693904D01*
X56149535Y-86656648D01*
X56215772Y-86588108D01*
X56302995Y-86492386D01*
X56407392Y-86373585D01*
X56525150Y-86235810D01*
X56943520Y-85740239D01*
X56974147Y-85877450D01*
X56991452Y-85957355D01*
X57033535Y-86168078D01*
X57077695Y-86408738D01*
X57122149Y-86668067D01*
X57165111Y-86934795D01*
X57204799Y-87197649D01*
X57239429Y-87445362D01*
X57267217Y-87666663D01*
X57286380Y-87850280D01*
X57295788Y-87971939D01*
X57302403Y-88119980D01*
X57302796Y-88272293D01*
X57296939Y-88444002D01*
X57284800Y-88650235D01*
X57281121Y-88703793D01*
X57256431Y-89016224D01*
X57225112Y-89352313D01*
X57189245Y-89692961D01*
X57188786Y-89697323D01*
X57149074Y-90036517D01*
X57107598Y-90355157D01*
X57065980Y-90638507D01*
X57049207Y-90747507D01*
X57031094Y-90872919D01*
X57017893Y-90973830D01*
X57010672Y-91041945D01*
X57010502Y-91068970D01*
X57025743Y-91071304D01*
X57085296Y-91075754D01*
X57183940Y-91081474D01*
X57315432Y-91088209D01*
X57473530Y-91095703D01*
X57651991Y-91103701D01*
X57844573Y-91111947D01*
X58045034Y-91120187D01*
X58247131Y-91128164D01*
X58444622Y-91135625D01*
X58631264Y-91142313D01*
X58800816Y-91147973D01*
X58947034Y-91152351D01*
X59063676Y-91155190D01*
X59144500Y-91156235D01*
X59147895Y-91156237D01*
X59277514Y-91154205D01*
X59424756Y-91148900D01*
X59558403Y-91141438D01*
X59747526Y-91139953D01*
X59999409Y-91163539D01*
X60292498Y-91213742D01*
X60626261Y-91290451D01*
X61000166Y-91393558D01*
X61413680Y-91522952D01*
X61551159Y-91568979D01*
X61744296Y-91636940D01*
X61933461Y-91708102D01*
X62126683Y-91785830D01*
X62331992Y-91873489D01*
X62557419Y-91974441D01*
X62810992Y-92092050D01*
X63100742Y-92229680D01*
X63193990Y-92274367D01*
X63411439Y-92378756D01*
X63589181Y-92464508D01*
X63731176Y-92533682D01*
X63841387Y-92588337D01*
X63923774Y-92630530D01*
X63982299Y-92662321D01*
X64020923Y-92685768D01*
X64043607Y-92702930D01*
X64054312Y-92715865D01*
X64057000Y-92726632D01*
X64052166Y-92734878D01*
X64024934Y-92744488D01*
X63968997Y-92751404D01*
X63879033Y-92755992D01*
X63749725Y-92758616D01*
X63575750Y-92759641D01*
X63475009Y-92760145D01*
X63226540Y-92764488D01*
X63006413Y-92772933D01*
X62818231Y-92785142D01*
X62665597Y-92800775D01*
X62552112Y-92819493D01*
X62481379Y-92840958D01*
X62457000Y-92864832D01*
X62458109Y-92869627D01*
X62483872Y-92907893D01*
X62538888Y-92971413D01*
X62616663Y-93053741D01*
X62710697Y-93148433D01*
X62814495Y-93249045D01*
X62921560Y-93349133D01*
X63025394Y-93442253D01*
X63119500Y-93521960D01*
X63450074Y-93773054D01*
X63808828Y-94005314D01*
X64190091Y-94211120D01*
X64607000Y-94398209D01*
X64614716Y-94401382D01*
X64707912Y-94440119D01*
X64839214Y-94495204D01*
X65001541Y-94563643D01*
X65187813Y-94642440D01*
X65390951Y-94728602D01*
X65603873Y-94819135D01*
X65819500Y-94911042D01*
X66000166Y-94987977D01*
X66397750Y-95155841D01*
X66754905Y-95304321D01*
X67075044Y-95434709D01*
X67361581Y-95548295D01*
X67404006Y-95564526D01*
X67617932Y-95646370D01*
X67847510Y-95730224D01*
G37*
%TD*%
M02*
