%TF.GenerationSoftware,KiCad,Pcbnew,6.0.11+dfsg-1~bpo11+1*%
%TF.CreationDate,2025-04-08T22:38:30+02:00*%
%TF.ProjectId,Boelgene_v1d1,426f656c-6765-46e6-955f-763164312e6b,rev?*%
%TF.SameCoordinates,Original*%
%TF.FileFunction,Soldermask,Top*%
%TF.FilePolarity,Negative*%
%FSLAX46Y46*%
G04 Gerber Fmt 4.6, Leading zero omitted, Abs format (unit mm)*
G04 Created by KiCad (PCBNEW 6.0.11+dfsg-1~bpo11+1) date 2025-04-08 22:38:30*
%MOMM*%
%LPD*%
G01*
G04 APERTURE LIST*
G04 Aperture macros list*
%AMRoundRect*
0 Rectangle with rounded corners*
0 $1 Rounding radius*
0 $2 $3 $4 $5 $6 $7 $8 $9 X,Y pos of 4 corners*
0 Add a 4 corners polygon primitive as box body*
4,1,4,$2,$3,$4,$5,$6,$7,$8,$9,$2,$3,0*
0 Add four circle primitives for the rounded corners*
1,1,$1+$1,$2,$3*
1,1,$1+$1,$4,$5*
1,1,$1+$1,$6,$7*
1,1,$1+$1,$8,$9*
0 Add four rect primitives between the rounded corners*
20,1,$1+$1,$2,$3,$4,$5,0*
20,1,$1+$1,$4,$5,$6,$7,0*
20,1,$1+$1,$6,$7,$8,$9,0*
20,1,$1+$1,$8,$9,$2,$3,0*%
G04 Aperture macros list end*
%ADD10C,3.200000*%
%ADD11R,2.000000X2.000000*%
%ADD12R,1.600000X1.600000*%
%ADD13C,1.600000*%
%ADD14RoundRect,0.250000X0.600000X0.750000X-0.600000X0.750000X-0.600000X-0.750000X0.600000X-0.750000X0*%
%ADD15O,1.700000X2.000000*%
%ADD16RoundRect,0.250000X-0.600000X-0.750000X0.600000X-0.750000X0.600000X0.750000X-0.600000X0.750000X0*%
%ADD17O,1.600000X1.600000*%
%ADD18O,1.700000X1.700000*%
%ADD19R,1.700000X1.700000*%
%ADD20R,1.560000X1.560000*%
%ADD21C,1.560000*%
%ADD22RoundRect,0.250000X-0.750000X0.600000X-0.750000X-0.600000X0.750000X-0.600000X0.750000X0.600000X0*%
%ADD23O,2.000000X1.700000*%
%ADD24RoundRect,0.250000X0.350000X0.625000X-0.350000X0.625000X-0.350000X-0.625000X0.350000X-0.625000X0*%
%ADD25O,1.200000X1.750000*%
%ADD26RoundRect,0.250000X-0.350000X-0.625000X0.350000X-0.625000X0.350000X0.625000X-0.350000X0.625000X0*%
G04 APERTURE END LIST*
D10*
%TO.C,H1*%
X31496000Y-81280000D03*
%TD*%
D11*
%TO.C,TP7*%
X99568000Y-104648000D03*
%TD*%
D12*
%TO.C,C6*%
X75137400Y-97028000D03*
D13*
X73137400Y-97028000D03*
%TD*%
D14*
%TO.C,J13*%
X53848000Y-83820000D03*
D15*
X51348000Y-83820000D03*
%TD*%
D14*
%TO.C,J3*%
X93957000Y-87901000D03*
D15*
X91457000Y-87901000D03*
%TD*%
D14*
%TO.C,J4*%
X85070000Y-87901000D03*
D15*
X82570000Y-87901000D03*
%TD*%
D16*
%TO.C,J1*%
X78232000Y-127000000D03*
D15*
X80732000Y-127000000D03*
%TD*%
D11*
%TO.C,TP43*%
X33528000Y-98552000D03*
%TD*%
D14*
%TO.C,J5*%
X111760000Y-90424000D03*
D15*
X109260000Y-90424000D03*
%TD*%
D13*
%TO.C,R4*%
X50038000Y-117856000D03*
D17*
X57658000Y-117856000D03*
%TD*%
D18*
%TO.C,U1*%
X34798000Y-121158000D03*
X37338000Y-121158000D03*
D19*
X39878000Y-121158000D03*
D18*
X42418000Y-121158000D03*
X44958000Y-121158000D03*
X47498000Y-121158000D03*
X50038000Y-121158000D03*
D19*
X52578000Y-121158000D03*
D18*
X55118000Y-121158000D03*
X57658000Y-121158000D03*
X60198000Y-121158000D03*
X62738000Y-121158000D03*
D19*
X65278000Y-121158000D03*
D18*
X67818000Y-121158000D03*
X70358000Y-121158000D03*
X72898000Y-121158000D03*
X75438000Y-121158000D03*
D19*
X77978000Y-121158000D03*
D18*
X80518000Y-121158000D03*
X83058000Y-121158000D03*
X83058000Y-103378000D03*
X80518000Y-103378000D03*
D19*
X77978000Y-103378000D03*
D18*
X75438000Y-103378000D03*
X72898000Y-103378000D03*
X70358000Y-103378000D03*
X67818000Y-103378000D03*
D19*
X65278000Y-103378000D03*
D18*
X62738000Y-103378000D03*
X60198000Y-103378000D03*
X57658000Y-103378000D03*
X55118000Y-103378000D03*
D19*
X52578000Y-103378000D03*
D18*
X50038000Y-103378000D03*
X47498000Y-103378000D03*
X44958000Y-103378000D03*
X42418000Y-103378000D03*
D19*
X39878000Y-103378000D03*
D18*
X37338000Y-103378000D03*
X34798000Y-103378000D03*
X82828000Y-114808000D03*
D19*
X82828000Y-112268000D03*
D18*
X82828000Y-109728000D03*
%TD*%
D11*
%TO.C,TP10*%
X41656000Y-91440000D03*
%TD*%
D20*
%TO.C,RV2*%
X89916000Y-92456000D03*
D21*
X92416000Y-97456000D03*
X94916000Y-92456000D03*
%TD*%
D11*
%TO.C,TP3*%
X44196000Y-91440000D03*
%TD*%
%TO.C,TP8*%
X102108000Y-104648000D03*
%TD*%
D20*
%TO.C,RV3*%
X81280000Y-92456000D03*
D21*
X83780000Y-97456000D03*
X86280000Y-92456000D03*
%TD*%
D11*
%TO.C,TP13*%
X37592000Y-127000000D03*
%TD*%
D12*
%TO.C,C9*%
X87694900Y-119888000D03*
D13*
X90194900Y-119888000D03*
%TD*%
D20*
%TO.C,RV4*%
X107696000Y-95504000D03*
D21*
X110196000Y-100504000D03*
X112696000Y-95504000D03*
%TD*%
D22*
%TO.C,J10*%
X105173000Y-110002000D03*
D23*
X105173000Y-112502000D03*
%TD*%
D13*
%TO.C,R3*%
X60198000Y-117856000D03*
D17*
X67818000Y-117856000D03*
%TD*%
D12*
%TO.C,C2*%
X89481600Y-104140000D03*
D13*
X94481600Y-104140000D03*
%TD*%
D12*
%TO.C,C4*%
X49032000Y-93980000D03*
D13*
X54032000Y-93980000D03*
%TD*%
D11*
%TO.C,TP12*%
X99568000Y-102108000D03*
%TD*%
D13*
%TO.C,C5*%
X49276000Y-107188000D03*
D17*
X56776000Y-107188000D03*
%TD*%
D20*
%TO.C,RV1*%
X99568000Y-92456000D03*
D21*
X102068000Y-97456000D03*
X104568000Y-92456000D03*
%TD*%
D11*
%TO.C,TP23*%
X34544000Y-91440000D03*
%TD*%
D13*
%TO.C,R1*%
X58166000Y-111252000D03*
D17*
X50546000Y-111252000D03*
%TD*%
D11*
%TO.C,TP25*%
X37084000Y-91440000D03*
%TD*%
D13*
%TO.C,R2*%
X48006000Y-111252000D03*
D17*
X40386000Y-111252000D03*
%TD*%
D12*
%TO.C,C10*%
X87968900Y-112268000D03*
D13*
X90468900Y-112268000D03*
%TD*%
D10*
%TO.C,H3*%
X111760000Y-81280000D03*
%TD*%
D11*
%TO.C,TP42*%
X78740000Y-95504000D03*
%TD*%
D24*
%TO.C,J8*%
X67278000Y-128058000D03*
D25*
X65278000Y-128058000D03*
X63278000Y-128058000D03*
%TD*%
D26*
%TO.C,J9*%
X41180000Y-82254000D03*
D25*
X43180000Y-82254000D03*
X45180000Y-82254000D03*
%TD*%
D24*
%TO.C,J6*%
X57912000Y-128016000D03*
D25*
X55912000Y-128016000D03*
X53912000Y-128016000D03*
%TD*%
D22*
%TO.C,J11*%
X105173000Y-118638000D03*
D23*
X105173000Y-121138000D03*
%TD*%
D10*
%TO.C,H4*%
X111760000Y-128016000D03*
%TD*%
D14*
%TO.C,J2*%
X103101000Y-87918000D03*
D15*
X100601000Y-87918000D03*
%TD*%
D13*
%TO.C,C3*%
X73152000Y-108204000D03*
D17*
X73152000Y-115704000D03*
%TD*%
D12*
%TO.C,C11*%
X96359800Y-119834000D03*
D13*
X93859800Y-119834000D03*
%TD*%
%TO.C,C1*%
X39430000Y-107188000D03*
D17*
X46930000Y-107188000D03*
%TD*%
D26*
%TO.C,J7*%
X42672000Y-127000000D03*
D25*
X44672000Y-127000000D03*
X46672000Y-127000000D03*
X48672000Y-127000000D03*
%TD*%
D12*
%TO.C,U2*%
X76947000Y-85100000D03*
D17*
X74407000Y-85100000D03*
X71867000Y-85100000D03*
X69327000Y-85100000D03*
X66787000Y-85100000D03*
X64247000Y-85100000D03*
X61707000Y-85100000D03*
X59167000Y-85100000D03*
X59167000Y-92720000D03*
X61707000Y-92720000D03*
X64247000Y-92720000D03*
X66787000Y-92720000D03*
X69327000Y-92720000D03*
X71867000Y-92720000D03*
X74407000Y-92720000D03*
X76947000Y-92720000D03*
%TD*%
D12*
%TO.C,C7*%
X37084000Y-97028000D03*
D13*
X39584000Y-97028000D03*
%TD*%
D12*
%TO.C,C12*%
X96201100Y-112268000D03*
D13*
X93701100Y-112268000D03*
%TD*%
D12*
%TO.C,C8*%
X45212000Y-97028000D03*
D13*
X42712000Y-97028000D03*
%TD*%
%TO.C,R5*%
X47498000Y-117856000D03*
D17*
X39878000Y-117856000D03*
%TD*%
D10*
%TO.C,H2*%
X31496000Y-128016000D03*
%TD*%
D24*
%TO.C,J12*%
X75692000Y-81280000D03*
D25*
X73692000Y-81280000D03*
X71692000Y-81280000D03*
X69692000Y-81280000D03*
X67692000Y-81280000D03*
X65692000Y-81280000D03*
%TD*%
M02*
