M48
; DRILL file {KiCad 6.0.11+dfsg-1~bpo11+1} date mar. 08 avril 2025 22:49:36
; FORMAT={-:-/ absolute / metric / decimal}
; #@! TF.CreationDate,2025-04-08T22:49:36+02:00
; #@! TF.GenerationSoftware,Kicad,Pcbnew,6.0.11+dfsg-1~bpo11+1
; #@! TF.FileFunction,Plated,1,2,PTH
FMAT,2
METRIC
; #@! TA.AperFunction,Plated,PTH,ComponentDrill
T1C0.750
; #@! TA.AperFunction,Plated,PTH,ComponentDrill
T2C0.800
; #@! TA.AperFunction,Plated,PTH,ComponentDrill
T3C1.000
; #@! TA.AperFunction,Plated,PTH,ComponentDrill
T4C1.020
%
G90
G05
T1
X41.18Y-82.254
X42.672Y-127.0
X43.18Y-82.254
X44.672Y-127.0
X45.18Y-82.254
X46.672Y-127.0
X48.672Y-127.0
X53.912Y-128.016
X55.912Y-128.016
X57.912Y-128.016
X63.278Y-128.058
X65.278Y-128.058
X65.692Y-81.28
X67.278Y-128.058
X67.692Y-81.28
X69.692Y-81.28
X71.692Y-81.28
X73.692Y-81.28
X75.692Y-81.28
T2
X37.084Y-97.028
X39.43Y-107.188
X39.584Y-97.028
X39.878Y-117.856
X40.386Y-111.252
X42.712Y-97.028
X45.212Y-97.028
X46.93Y-107.188
X47.498Y-117.856
X48.006Y-111.252
X49.032Y-93.98
X49.276Y-107.188
X50.038Y-117.856
X50.546Y-111.252
X54.032Y-93.98
X56.776Y-107.188
X57.658Y-117.856
X58.166Y-111.252
X59.167Y-85.1
X59.167Y-92.72
X60.198Y-117.856
X61.707Y-85.1
X61.707Y-92.72
X64.247Y-85.1
X64.247Y-92.72
X66.787Y-85.1
X66.787Y-92.72
X67.818Y-117.856
X69.327Y-85.1
X69.327Y-92.72
X71.867Y-85.1
X71.867Y-92.72
X73.137Y-97.028
X73.152Y-108.204
X73.152Y-115.704
X74.407Y-85.1
X74.407Y-92.72
X75.137Y-97.028
X76.947Y-85.1
X76.947Y-92.72
X87.695Y-119.888
X87.969Y-112.268
X89.482Y-104.14
X90.195Y-119.888
X90.469Y-112.268
X93.701Y-112.268
X93.86Y-119.834
X94.482Y-104.14
X96.201Y-112.268
X96.36Y-119.834
T3
X33.528Y-98.552
X34.544Y-91.44
X37.084Y-91.44
X37.592Y-127.0
X41.656Y-91.44
X44.196Y-91.44
X51.348Y-83.82
X53.848Y-83.82
X78.232Y-127.0
X78.74Y-95.504
X80.732Y-127.0
X81.28Y-92.456
X82.57Y-87.901
X83.78Y-97.456
X85.07Y-87.901
X86.28Y-92.456
X89.916Y-92.456
X91.457Y-87.901
X92.416Y-97.456
X93.957Y-87.901
X94.916Y-92.456
X99.568Y-92.456
X99.568Y-102.108
X99.568Y-104.648
X100.601Y-87.918
X102.068Y-97.456
X102.108Y-104.648
X103.101Y-87.918
X104.568Y-92.456
X105.173Y-110.002
X105.173Y-112.502
X105.173Y-118.638
X105.173Y-121.138
X107.696Y-95.504
X109.26Y-90.424
X110.196Y-100.504
X111.76Y-90.424
X112.696Y-95.504
T4
X34.798Y-103.378
X34.798Y-121.158
X37.338Y-103.378
X37.338Y-121.158
X39.878Y-103.378
X39.878Y-121.158
X42.418Y-103.378
X42.418Y-121.158
X44.958Y-103.378
X44.958Y-121.158
X47.498Y-103.378
X47.498Y-121.158
X50.038Y-103.378
X50.038Y-121.158
X52.578Y-103.378
X52.578Y-121.158
X55.118Y-103.378
X55.118Y-121.158
X57.658Y-103.378
X57.658Y-121.158
X60.198Y-103.378
X60.198Y-121.158
X62.738Y-103.378
X62.738Y-121.158
X65.278Y-103.378
X65.278Y-121.158
X67.818Y-103.378
X67.818Y-121.158
X70.358Y-103.378
X70.358Y-121.158
X72.898Y-103.378
X72.898Y-121.158
X75.438Y-103.378
X75.438Y-121.158
X77.978Y-103.378
X77.978Y-121.158
X80.518Y-103.378
X80.518Y-121.158
X82.828Y-109.728
X82.828Y-112.268
X82.828Y-114.808
X83.058Y-103.378
X83.058Y-121.158
T0
M30
