%TF.GenerationSoftware,KiCad,Pcbnew,6.0.11+dfsg-1~bpo11+1*%
%TF.CreationDate,2025-04-08T22:49:36+02:00*%
%TF.ProjectId,Boelgene_v1d1,426f656c-6765-46e6-955f-763164312e6b,rev?*%
%TF.SameCoordinates,Original*%
%TF.FileFunction,Drillmap*%
%TF.FilePolarity,Positive*%
%FSLAX45Y45*%
G04 Gerber Fmt 4.5, Leading zero omitted, Abs format (unit mm)*
G04 Created by KiCad (PCBNEW 6.0.11+dfsg-1~bpo11+1) date 2025-04-08 22:49:36*
%MOMM*%
%LPD*%
G01*
G04 APERTURE LIST*
%ADD10C,0.100000*%
%ADD11C,0.200000*%
%ADD12C,0.075000*%
%ADD13C,0.080000*%
%ADD14C,0.102000*%
G04 APERTURE END LIST*
D10*
X2844800Y-7772400D02*
X11480800Y-7772400D01*
X11480800Y-7772400D02*
X11480800Y-13157200D01*
X11480800Y-13157200D02*
X2844800Y-13157200D01*
X2844800Y-13157200D02*
X2844800Y-7772400D01*
D11*
D12*
X4080500Y-8187900D02*
X4155500Y-8262900D01*
X4155500Y-8187900D02*
X4080500Y-8262900D01*
X4229700Y-12662500D02*
X4304700Y-12737500D01*
X4304700Y-12662500D02*
X4229700Y-12737500D01*
X4280500Y-8187900D02*
X4355500Y-8262900D01*
X4355500Y-8187900D02*
X4280500Y-8262900D01*
X4429700Y-12662500D02*
X4504700Y-12737500D01*
X4504700Y-12662500D02*
X4429700Y-12737500D01*
X4480500Y-8187900D02*
X4555500Y-8262900D01*
X4555500Y-8187900D02*
X4480500Y-8262900D01*
X4629700Y-12662500D02*
X4704700Y-12737500D01*
X4704700Y-12662500D02*
X4629700Y-12737500D01*
X4829700Y-12662500D02*
X4904700Y-12737500D01*
X4904700Y-12662500D02*
X4829700Y-12737500D01*
X5353700Y-12764100D02*
X5428700Y-12839100D01*
X5428700Y-12764100D02*
X5353700Y-12839100D01*
X5553700Y-12764100D02*
X5628700Y-12839100D01*
X5628700Y-12764100D02*
X5553700Y-12839100D01*
X5753700Y-12764100D02*
X5828700Y-12839100D01*
X5828700Y-12764100D02*
X5753700Y-12839100D01*
X6290300Y-12768300D02*
X6365300Y-12843300D01*
X6365300Y-12768300D02*
X6290300Y-12843300D01*
X6490300Y-12768300D02*
X6565300Y-12843300D01*
X6565300Y-12768300D02*
X6490300Y-12843300D01*
X6531700Y-8090500D02*
X6606700Y-8165500D01*
X6606700Y-8090500D02*
X6531700Y-8165500D01*
X6690300Y-12768300D02*
X6765300Y-12843300D01*
X6765300Y-12768300D02*
X6690300Y-12843300D01*
X6731700Y-8090500D02*
X6806700Y-8165500D01*
X6806700Y-8090500D02*
X6731700Y-8165500D01*
X6931700Y-8090500D02*
X7006700Y-8165500D01*
X7006700Y-8090500D02*
X6931700Y-8165500D01*
X7131700Y-8090500D02*
X7206700Y-8165500D01*
X7206700Y-8090500D02*
X7131700Y-8165500D01*
X7331700Y-8090500D02*
X7406700Y-8165500D01*
X7406700Y-8090500D02*
X7331700Y-8165500D01*
X7531700Y-8090500D02*
X7606700Y-8165500D01*
X7606700Y-8090500D02*
X7531700Y-8165500D01*
D13*
X3748400Y-9702800D02*
G75*
G03*
X3748400Y-9702800I-40000J0D01*
G01*
X3983000Y-10718800D02*
G75*
G03*
X3983000Y-10718800I-40000J0D01*
G01*
X3998400Y-9702800D02*
G75*
G03*
X3998400Y-9702800I-40000J0D01*
G01*
X4027800Y-11785600D02*
G75*
G03*
X4027800Y-11785600I-40000J0D01*
G01*
X4078600Y-11125200D02*
G75*
G03*
X4078600Y-11125200I-40000J0D01*
G01*
X4311200Y-9702800D02*
G75*
G03*
X4311200Y-9702800I-40000J0D01*
G01*
X4561200Y-9702800D02*
G75*
G03*
X4561200Y-9702800I-40000J0D01*
G01*
X4733000Y-10718800D02*
G75*
G03*
X4733000Y-10718800I-40000J0D01*
G01*
X4789800Y-11785600D02*
G75*
G03*
X4789800Y-11785600I-40000J0D01*
G01*
X4840600Y-11125200D02*
G75*
G03*
X4840600Y-11125200I-40000J0D01*
G01*
X4943200Y-9398000D02*
G75*
G03*
X4943200Y-9398000I-40000J0D01*
G01*
X4967600Y-10718800D02*
G75*
G03*
X4967600Y-10718800I-40000J0D01*
G01*
X5043800Y-11785600D02*
G75*
G03*
X5043800Y-11785600I-40000J0D01*
G01*
X5094600Y-11125200D02*
G75*
G03*
X5094600Y-11125200I-40000J0D01*
G01*
X5443200Y-9398000D02*
G75*
G03*
X5443200Y-9398000I-40000J0D01*
G01*
X5717600Y-10718800D02*
G75*
G03*
X5717600Y-10718800I-40000J0D01*
G01*
X5805800Y-11785600D02*
G75*
G03*
X5805800Y-11785600I-40000J0D01*
G01*
X5856600Y-11125200D02*
G75*
G03*
X5856600Y-11125200I-40000J0D01*
G01*
X5956700Y-8510000D02*
G75*
G03*
X5956700Y-8510000I-40000J0D01*
G01*
X5956700Y-9272000D02*
G75*
G03*
X5956700Y-9272000I-40000J0D01*
G01*
X6059800Y-11785600D02*
G75*
G03*
X6059800Y-11785600I-40000J0D01*
G01*
X6210700Y-8510000D02*
G75*
G03*
X6210700Y-8510000I-40000J0D01*
G01*
X6210700Y-9272000D02*
G75*
G03*
X6210700Y-9272000I-40000J0D01*
G01*
X6464700Y-8510000D02*
G75*
G03*
X6464700Y-8510000I-40000J0D01*
G01*
X6464700Y-9272000D02*
G75*
G03*
X6464700Y-9272000I-40000J0D01*
G01*
X6718700Y-8510000D02*
G75*
G03*
X6718700Y-8510000I-40000J0D01*
G01*
X6718700Y-9272000D02*
G75*
G03*
X6718700Y-9272000I-40000J0D01*
G01*
X6821800Y-11785600D02*
G75*
G03*
X6821800Y-11785600I-40000J0D01*
G01*
X6972700Y-8510000D02*
G75*
G03*
X6972700Y-8510000I-40000J0D01*
G01*
X6972700Y-9272000D02*
G75*
G03*
X6972700Y-9272000I-40000J0D01*
G01*
X7226700Y-8510000D02*
G75*
G03*
X7226700Y-8510000I-40000J0D01*
G01*
X7226700Y-9272000D02*
G75*
G03*
X7226700Y-9272000I-40000J0D01*
G01*
X7353740Y-9702800D02*
G75*
G03*
X7353740Y-9702800I-40000J0D01*
G01*
X7355200Y-10820400D02*
G75*
G03*
X7355200Y-10820400I-40000J0D01*
G01*
X7355200Y-11570400D02*
G75*
G03*
X7355200Y-11570400I-40000J0D01*
G01*
X7480700Y-8510000D02*
G75*
G03*
X7480700Y-8510000I-40000J0D01*
G01*
X7480700Y-9272000D02*
G75*
G03*
X7480700Y-9272000I-40000J0D01*
G01*
X7553740Y-9702800D02*
G75*
G03*
X7553740Y-9702800I-40000J0D01*
G01*
X7734700Y-8510000D02*
G75*
G03*
X7734700Y-8510000I-40000J0D01*
G01*
X7734700Y-9272000D02*
G75*
G03*
X7734700Y-9272000I-40000J0D01*
G01*
X8809490Y-11988800D02*
G75*
G03*
X8809490Y-11988800I-40000J0D01*
G01*
X8836890Y-11226800D02*
G75*
G03*
X8836890Y-11226800I-40000J0D01*
G01*
X8988160Y-10414000D02*
G75*
G03*
X8988160Y-10414000I-40000J0D01*
G01*
X9059490Y-11988800D02*
G75*
G03*
X9059490Y-11988800I-40000J0D01*
G01*
X9086890Y-11226800D02*
G75*
G03*
X9086890Y-11226800I-40000J0D01*
G01*
X9410110Y-11226800D02*
G75*
G03*
X9410110Y-11226800I-40000J0D01*
G01*
X9425980Y-11983400D02*
G75*
G03*
X9425980Y-11983400I-40000J0D01*
G01*
X9488160Y-10414000D02*
G75*
G03*
X9488160Y-10414000I-40000J0D01*
G01*
X9660110Y-11226800D02*
G75*
G03*
X9660110Y-11226800I-40000J0D01*
G01*
X9675980Y-11983400D02*
G75*
G03*
X9675980Y-11983400I-40000J0D01*
G01*
D10*
X3352800Y-9805200D02*
X3352800Y-9905200D01*
X3302800Y-9855200D02*
X3402800Y-9855200D01*
X3454400Y-9094000D02*
X3454400Y-9194000D01*
X3404400Y-9144000D02*
X3504400Y-9144000D01*
X3708400Y-9094000D02*
X3708400Y-9194000D01*
X3658400Y-9144000D02*
X3758400Y-9144000D01*
X3759200Y-12650000D02*
X3759200Y-12750000D01*
X3709200Y-12700000D02*
X3809200Y-12700000D01*
X4165600Y-9094000D02*
X4165600Y-9194000D01*
X4115600Y-9144000D02*
X4215600Y-9144000D01*
X4419600Y-9094000D02*
X4419600Y-9194000D01*
X4369600Y-9144000D02*
X4469600Y-9144000D01*
X5134800Y-8332000D02*
X5134800Y-8432000D01*
X5084800Y-8382000D02*
X5184800Y-8382000D01*
X5384800Y-8332000D02*
X5384800Y-8432000D01*
X5334800Y-8382000D02*
X5434800Y-8382000D01*
X7823200Y-12650000D02*
X7823200Y-12750000D01*
X7773200Y-12700000D02*
X7873200Y-12700000D01*
X7874000Y-9500400D02*
X7874000Y-9600400D01*
X7824000Y-9550400D02*
X7924000Y-9550400D01*
X8073200Y-12650000D02*
X8073200Y-12750000D01*
X8023200Y-12700000D02*
X8123200Y-12700000D01*
X8128000Y-9195600D02*
X8128000Y-9295600D01*
X8078000Y-9245600D02*
X8178000Y-9245600D01*
X8257000Y-8740100D02*
X8257000Y-8840100D01*
X8207000Y-8790100D02*
X8307000Y-8790100D01*
X8378000Y-9695600D02*
X8378000Y-9795600D01*
X8328000Y-9745600D02*
X8428000Y-9745600D01*
X8507000Y-8740100D02*
X8507000Y-8840100D01*
X8457000Y-8790100D02*
X8557000Y-8790100D01*
X8628000Y-9195600D02*
X8628000Y-9295600D01*
X8578000Y-9245600D02*
X8678000Y-9245600D01*
X8991600Y-9195600D02*
X8991600Y-9295600D01*
X8941600Y-9245600D02*
X9041600Y-9245600D01*
X9145700Y-8740100D02*
X9145700Y-8840100D01*
X9095700Y-8790100D02*
X9195700Y-8790100D01*
X9241600Y-9695600D02*
X9241600Y-9795600D01*
X9191600Y-9745600D02*
X9291600Y-9745600D01*
X9395700Y-8740100D02*
X9395700Y-8840100D01*
X9345700Y-8790100D02*
X9445700Y-8790100D01*
X9491600Y-9195600D02*
X9491600Y-9295600D01*
X9441600Y-9245600D02*
X9541600Y-9245600D01*
X9956800Y-9195600D02*
X9956800Y-9295600D01*
X9906800Y-9245600D02*
X10006800Y-9245600D01*
X9956800Y-10160800D02*
X9956800Y-10260800D01*
X9906800Y-10210800D02*
X10006800Y-10210800D01*
X9956800Y-10414800D02*
X9956800Y-10514800D01*
X9906800Y-10464800D02*
X10006800Y-10464800D01*
X10060100Y-8741800D02*
X10060100Y-8841800D01*
X10010100Y-8791800D02*
X10110100Y-8791800D01*
X10206800Y-9695600D02*
X10206800Y-9795600D01*
X10156800Y-9745600D02*
X10256800Y-9745600D01*
X10210800Y-10414800D02*
X10210800Y-10514800D01*
X10160800Y-10464800D02*
X10260800Y-10464800D01*
X10310100Y-8741800D02*
X10310100Y-8841800D01*
X10260100Y-8791800D02*
X10360100Y-8791800D01*
X10456800Y-9195600D02*
X10456800Y-9295600D01*
X10406800Y-9245600D02*
X10506800Y-9245600D01*
X10517300Y-10950200D02*
X10517300Y-11050200D01*
X10467300Y-11000200D02*
X10567300Y-11000200D01*
X10517300Y-11200200D02*
X10517300Y-11300200D01*
X10467300Y-11250200D02*
X10567300Y-11250200D01*
X10517300Y-11813800D02*
X10517300Y-11913800D01*
X10467300Y-11863800D02*
X10567300Y-11863800D01*
X10517300Y-12063800D02*
X10517300Y-12163800D01*
X10467300Y-12113800D02*
X10567300Y-12113800D01*
X10769600Y-9500400D02*
X10769600Y-9600400D01*
X10719600Y-9550400D02*
X10819600Y-9550400D01*
X10926000Y-8992400D02*
X10926000Y-9092400D01*
X10876000Y-9042400D02*
X10976000Y-9042400D01*
X11019600Y-10000400D02*
X11019600Y-10100400D01*
X10969600Y-10050400D02*
X11069600Y-10050400D01*
X11176000Y-8992400D02*
X11176000Y-9092400D01*
X11126000Y-9042400D02*
X11226000Y-9042400D01*
X11269600Y-9500400D02*
X11269600Y-9600400D01*
X11219600Y-9550400D02*
X11319600Y-9550400D01*
D14*
X3515863Y-10373863D02*
X3515863Y-10301737D01*
X3443737Y-10301737D01*
X3443737Y-10373863D01*
X3515863Y-10373863D01*
X3515863Y-12151863D02*
X3515863Y-12079737D01*
X3443737Y-12079737D01*
X3443737Y-12151863D01*
X3515863Y-12151863D01*
X3769863Y-10373863D02*
X3769863Y-10301737D01*
X3697737Y-10301737D01*
X3697737Y-10373863D01*
X3769863Y-10373863D01*
X3769863Y-12151863D02*
X3769863Y-12079737D01*
X3697737Y-12079737D01*
X3697737Y-12151863D01*
X3769863Y-12151863D01*
X4023863Y-10373863D02*
X4023863Y-10301737D01*
X3951737Y-10301737D01*
X3951737Y-10373863D01*
X4023863Y-10373863D01*
X4023863Y-12151863D02*
X4023863Y-12079737D01*
X3951737Y-12079737D01*
X3951737Y-12151863D01*
X4023863Y-12151863D01*
X4277863Y-10373863D02*
X4277863Y-10301737D01*
X4205737Y-10301737D01*
X4205737Y-10373863D01*
X4277863Y-10373863D01*
X4277863Y-12151863D02*
X4277863Y-12079737D01*
X4205737Y-12079737D01*
X4205737Y-12151863D01*
X4277863Y-12151863D01*
X4531863Y-10373863D02*
X4531863Y-10301737D01*
X4459737Y-10301737D01*
X4459737Y-10373863D01*
X4531863Y-10373863D01*
X4531863Y-12151863D02*
X4531863Y-12079737D01*
X4459737Y-12079737D01*
X4459737Y-12151863D01*
X4531863Y-12151863D01*
X4785863Y-10373863D02*
X4785863Y-10301737D01*
X4713737Y-10301737D01*
X4713737Y-10373863D01*
X4785863Y-10373863D01*
X4785863Y-12151863D02*
X4785863Y-12079737D01*
X4713737Y-12079737D01*
X4713737Y-12151863D01*
X4785863Y-12151863D01*
X5039863Y-10373863D02*
X5039863Y-10301737D01*
X4967737Y-10301737D01*
X4967737Y-10373863D01*
X5039863Y-10373863D01*
X5039863Y-12151863D02*
X5039863Y-12079737D01*
X4967737Y-12079737D01*
X4967737Y-12151863D01*
X5039863Y-12151863D01*
X5293863Y-10373863D02*
X5293863Y-10301737D01*
X5221737Y-10301737D01*
X5221737Y-10373863D01*
X5293863Y-10373863D01*
X5293863Y-12151863D02*
X5293863Y-12079737D01*
X5221737Y-12079737D01*
X5221737Y-12151863D01*
X5293863Y-12151863D01*
X5547863Y-10373863D02*
X5547863Y-10301737D01*
X5475737Y-10301737D01*
X5475737Y-10373863D01*
X5547863Y-10373863D01*
X5547863Y-12151863D02*
X5547863Y-12079737D01*
X5475737Y-12079737D01*
X5475737Y-12151863D01*
X5547863Y-12151863D01*
X5801863Y-10373863D02*
X5801863Y-10301737D01*
X5729737Y-10301737D01*
X5729737Y-10373863D01*
X5801863Y-10373863D01*
X5801863Y-12151863D02*
X5801863Y-12079737D01*
X5729737Y-12079737D01*
X5729737Y-12151863D01*
X5801863Y-12151863D01*
X6055863Y-10373863D02*
X6055863Y-10301737D01*
X5983737Y-10301737D01*
X5983737Y-10373863D01*
X6055863Y-10373863D01*
X6055863Y-12151863D02*
X6055863Y-12079737D01*
X5983737Y-12079737D01*
X5983737Y-12151863D01*
X6055863Y-12151863D01*
X6309863Y-10373863D02*
X6309863Y-10301737D01*
X6237737Y-10301737D01*
X6237737Y-10373863D01*
X6309863Y-10373863D01*
X6309863Y-12151863D02*
X6309863Y-12079737D01*
X6237737Y-12079737D01*
X6237737Y-12151863D01*
X6309863Y-12151863D01*
X6563863Y-10373863D02*
X6563863Y-10301737D01*
X6491737Y-10301737D01*
X6491737Y-10373863D01*
X6563863Y-10373863D01*
X6563863Y-12151863D02*
X6563863Y-12079737D01*
X6491737Y-12079737D01*
X6491737Y-12151863D01*
X6563863Y-12151863D01*
X6817863Y-10373863D02*
X6817863Y-10301737D01*
X6745737Y-10301737D01*
X6745737Y-10373863D01*
X6817863Y-10373863D01*
X6817863Y-12151863D02*
X6817863Y-12079737D01*
X6745737Y-12079737D01*
X6745737Y-12151863D01*
X6817863Y-12151863D01*
X7071863Y-10373863D02*
X7071863Y-10301737D01*
X6999737Y-10301737D01*
X6999737Y-10373863D01*
X7071863Y-10373863D01*
X7071863Y-12151863D02*
X7071863Y-12079737D01*
X6999737Y-12079737D01*
X6999737Y-12151863D01*
X7071863Y-12151863D01*
X7325863Y-10373863D02*
X7325863Y-10301737D01*
X7253737Y-10301737D01*
X7253737Y-10373863D01*
X7325863Y-10373863D01*
X7325863Y-12151863D02*
X7325863Y-12079737D01*
X7253737Y-12079737D01*
X7253737Y-12151863D01*
X7325863Y-12151863D01*
X7579863Y-10373863D02*
X7579863Y-10301737D01*
X7507737Y-10301737D01*
X7507737Y-10373863D01*
X7579863Y-10373863D01*
X7579863Y-12151863D02*
X7579863Y-12079737D01*
X7507737Y-12079737D01*
X7507737Y-12151863D01*
X7579863Y-12151863D01*
X7833863Y-10373863D02*
X7833863Y-10301737D01*
X7761737Y-10301737D01*
X7761737Y-10373863D01*
X7833863Y-10373863D01*
X7833863Y-12151863D02*
X7833863Y-12079737D01*
X7761737Y-12079737D01*
X7761737Y-12151863D01*
X7833863Y-12151863D01*
X8087863Y-10373863D02*
X8087863Y-10301737D01*
X8015737Y-10301737D01*
X8015737Y-10373863D01*
X8087863Y-10373863D01*
X8087863Y-12151863D02*
X8087863Y-12079737D01*
X8015737Y-12079737D01*
X8015737Y-12151863D01*
X8087863Y-12151863D01*
X8318863Y-11008863D02*
X8318863Y-10936737D01*
X8246737Y-10936737D01*
X8246737Y-11008863D01*
X8318863Y-11008863D01*
X8318863Y-11262863D02*
X8318863Y-11190737D01*
X8246737Y-11190737D01*
X8246737Y-11262863D01*
X8318863Y-11262863D01*
X8318863Y-11516863D02*
X8318863Y-11444737D01*
X8246737Y-11444737D01*
X8246737Y-11516863D01*
X8318863Y-11516863D01*
X8341863Y-10373863D02*
X8341863Y-10301737D01*
X8269737Y-10301737D01*
X8269737Y-10373863D01*
X8341863Y-10373863D01*
X8341863Y-12151863D02*
X8341863Y-12079737D01*
X8269737Y-12079737D01*
X8269737Y-12151863D01*
X8341863Y-12151863D01*
D11*
X3097419Y-13472676D02*
X3097419Y-13272676D01*
X3145038Y-13272676D01*
X3173609Y-13282200D01*
X3192657Y-13301248D01*
X3202181Y-13320295D01*
X3211705Y-13358390D01*
X3211705Y-13386962D01*
X3202181Y-13425057D01*
X3192657Y-13444105D01*
X3173609Y-13463152D01*
X3145038Y-13472676D01*
X3097419Y-13472676D01*
X3297419Y-13472676D02*
X3297419Y-13339343D01*
X3297419Y-13377438D02*
X3306943Y-13358390D01*
X3316467Y-13348867D01*
X3335514Y-13339343D01*
X3354562Y-13339343D01*
X3421228Y-13472676D02*
X3421228Y-13339343D01*
X3421228Y-13272676D02*
X3411705Y-13282200D01*
X3421228Y-13291724D01*
X3430752Y-13282200D01*
X3421228Y-13272676D01*
X3421228Y-13291724D01*
X3545038Y-13472676D02*
X3525990Y-13463152D01*
X3516467Y-13444105D01*
X3516467Y-13272676D01*
X3649800Y-13472676D02*
X3630752Y-13463152D01*
X3621228Y-13444105D01*
X3621228Y-13272676D01*
X3878371Y-13472676D02*
X3878371Y-13272676D01*
X3945038Y-13415533D01*
X4011705Y-13272676D01*
X4011705Y-13472676D01*
X4192657Y-13472676D02*
X4192657Y-13367914D01*
X4183133Y-13348867D01*
X4164086Y-13339343D01*
X4125990Y-13339343D01*
X4106943Y-13348867D01*
X4192657Y-13463152D02*
X4173609Y-13472676D01*
X4125990Y-13472676D01*
X4106943Y-13463152D01*
X4097419Y-13444105D01*
X4097419Y-13425057D01*
X4106943Y-13406009D01*
X4125990Y-13396486D01*
X4173609Y-13396486D01*
X4192657Y-13386962D01*
X4287895Y-13339343D02*
X4287895Y-13539343D01*
X4287895Y-13348867D02*
X4306943Y-13339343D01*
X4345038Y-13339343D01*
X4364086Y-13348867D01*
X4373610Y-13358390D01*
X4383133Y-13377438D01*
X4383133Y-13434581D01*
X4373610Y-13453628D01*
X4364086Y-13463152D01*
X4345038Y-13472676D01*
X4306943Y-13472676D01*
X4287895Y-13463152D01*
X4468848Y-13453628D02*
X4478371Y-13463152D01*
X4468848Y-13472676D01*
X4459324Y-13463152D01*
X4468848Y-13453628D01*
X4468848Y-13472676D01*
X4468848Y-13348867D02*
X4478371Y-13358390D01*
X4468848Y-13367914D01*
X4459324Y-13358390D01*
X4468848Y-13348867D01*
X4468848Y-13367914D01*
D12*
X2764800Y-13764700D02*
X2839800Y-13839700D01*
X2839800Y-13764700D02*
X2764800Y-13839700D01*
D11*
X3135514Y-13692676D02*
X3154562Y-13692676D01*
X3173609Y-13702200D01*
X3183133Y-13711724D01*
X3192657Y-13730771D01*
X3202181Y-13768867D01*
X3202181Y-13816486D01*
X3192657Y-13854581D01*
X3183133Y-13873628D01*
X3173609Y-13883152D01*
X3154562Y-13892676D01*
X3135514Y-13892676D01*
X3116467Y-13883152D01*
X3106943Y-13873628D01*
X3097419Y-13854581D01*
X3087895Y-13816486D01*
X3087895Y-13768867D01*
X3097419Y-13730771D01*
X3106943Y-13711724D01*
X3116467Y-13702200D01*
X3135514Y-13692676D01*
X3287895Y-13873628D02*
X3297419Y-13883152D01*
X3287895Y-13892676D01*
X3278371Y-13883152D01*
X3287895Y-13873628D01*
X3287895Y-13892676D01*
X3364086Y-13692676D02*
X3497419Y-13692676D01*
X3411705Y-13892676D01*
X3668848Y-13692676D02*
X3573609Y-13692676D01*
X3564086Y-13787914D01*
X3573609Y-13778390D01*
X3592657Y-13768867D01*
X3640276Y-13768867D01*
X3659324Y-13778390D01*
X3668848Y-13787914D01*
X3678371Y-13806962D01*
X3678371Y-13854581D01*
X3668848Y-13873628D01*
X3659324Y-13883152D01*
X3640276Y-13892676D01*
X3592657Y-13892676D01*
X3573609Y-13883152D01*
X3564086Y-13873628D01*
X3802181Y-13692676D02*
X3821228Y-13692676D01*
X3840276Y-13702200D01*
X3849800Y-13711724D01*
X3859324Y-13730771D01*
X3868848Y-13768867D01*
X3868848Y-13816486D01*
X3859324Y-13854581D01*
X3849800Y-13873628D01*
X3840276Y-13883152D01*
X3821228Y-13892676D01*
X3802181Y-13892676D01*
X3783133Y-13883152D01*
X3773609Y-13873628D01*
X3764086Y-13854581D01*
X3754562Y-13816486D01*
X3754562Y-13768867D01*
X3764086Y-13730771D01*
X3773609Y-13711724D01*
X3783133Y-13702200D01*
X3802181Y-13692676D01*
X3954562Y-13892676D02*
X3954562Y-13759343D01*
X3954562Y-13778390D02*
X3964086Y-13768867D01*
X3983133Y-13759343D01*
X4011705Y-13759343D01*
X4030752Y-13768867D01*
X4040276Y-13787914D01*
X4040276Y-13892676D01*
X4040276Y-13787914D02*
X4049800Y-13768867D01*
X4068848Y-13759343D01*
X4097419Y-13759343D01*
X4116467Y-13768867D01*
X4125990Y-13787914D01*
X4125990Y-13892676D01*
X4221229Y-13892676D02*
X4221229Y-13759343D01*
X4221229Y-13778390D02*
X4230752Y-13768867D01*
X4249800Y-13759343D01*
X4278371Y-13759343D01*
X4297419Y-13768867D01*
X4306943Y-13787914D01*
X4306943Y-13892676D01*
X4306943Y-13787914D02*
X4316467Y-13768867D01*
X4335514Y-13759343D01*
X4364086Y-13759343D01*
X4383133Y-13768867D01*
X4392657Y-13787914D01*
X4392657Y-13892676D01*
X4783133Y-13683152D02*
X4611705Y-13940295D01*
X5040276Y-13692676D02*
X5059324Y-13692676D01*
X5078371Y-13702200D01*
X5087895Y-13711724D01*
X5097419Y-13730771D01*
X5106943Y-13768867D01*
X5106943Y-13816486D01*
X5097419Y-13854581D01*
X5087895Y-13873628D01*
X5078371Y-13883152D01*
X5059324Y-13892676D01*
X5040276Y-13892676D01*
X5021229Y-13883152D01*
X5011705Y-13873628D01*
X5002181Y-13854581D01*
X4992657Y-13816486D01*
X4992657Y-13768867D01*
X5002181Y-13730771D01*
X5011705Y-13711724D01*
X5021229Y-13702200D01*
X5040276Y-13692676D01*
X5192657Y-13873628D02*
X5202181Y-13883152D01*
X5192657Y-13892676D01*
X5183133Y-13883152D01*
X5192657Y-13873628D01*
X5192657Y-13892676D01*
X5325990Y-13692676D02*
X5345038Y-13692676D01*
X5364086Y-13702200D01*
X5373610Y-13711724D01*
X5383133Y-13730771D01*
X5392657Y-13768867D01*
X5392657Y-13816486D01*
X5383133Y-13854581D01*
X5373610Y-13873628D01*
X5364086Y-13883152D01*
X5345038Y-13892676D01*
X5325990Y-13892676D01*
X5306943Y-13883152D01*
X5297419Y-13873628D01*
X5287895Y-13854581D01*
X5278371Y-13816486D01*
X5278371Y-13768867D01*
X5287895Y-13730771D01*
X5297419Y-13711724D01*
X5306943Y-13702200D01*
X5325990Y-13692676D01*
X5468848Y-13711724D02*
X5478371Y-13702200D01*
X5497419Y-13692676D01*
X5545038Y-13692676D01*
X5564086Y-13702200D01*
X5573610Y-13711724D01*
X5583133Y-13730771D01*
X5583133Y-13749819D01*
X5573610Y-13778390D01*
X5459324Y-13892676D01*
X5583133Y-13892676D01*
X5678371Y-13892676D02*
X5716467Y-13892676D01*
X5735514Y-13883152D01*
X5745038Y-13873628D01*
X5764086Y-13845057D01*
X5773609Y-13806962D01*
X5773609Y-13730771D01*
X5764086Y-13711724D01*
X5754562Y-13702200D01*
X5735514Y-13692676D01*
X5697419Y-13692676D01*
X5678371Y-13702200D01*
X5668848Y-13711724D01*
X5659324Y-13730771D01*
X5659324Y-13778390D01*
X5668848Y-13797438D01*
X5678371Y-13806962D01*
X5697419Y-13816486D01*
X5735514Y-13816486D01*
X5754562Y-13806962D01*
X5764086Y-13797438D01*
X5773609Y-13778390D01*
X5954562Y-13692676D02*
X5859324Y-13692676D01*
X5849800Y-13787914D01*
X5859324Y-13778390D01*
X5878371Y-13768867D01*
X5925990Y-13768867D01*
X5945038Y-13778390D01*
X5954562Y-13787914D01*
X5964086Y-13806962D01*
X5964086Y-13854581D01*
X5954562Y-13873628D01*
X5945038Y-13883152D01*
X5925990Y-13892676D01*
X5878371Y-13892676D01*
X5859324Y-13883152D01*
X5849800Y-13873628D01*
X6040276Y-13692676D02*
X6040276Y-13730771D01*
X6116467Y-13692676D02*
X6116467Y-13730771D01*
X6411705Y-13968867D02*
X6402181Y-13959343D01*
X6383133Y-13930771D01*
X6373609Y-13911724D01*
X6364086Y-13883152D01*
X6354562Y-13835533D01*
X6354562Y-13797438D01*
X6364086Y-13749819D01*
X6373609Y-13721248D01*
X6383133Y-13702200D01*
X6402181Y-13673628D01*
X6411705Y-13664105D01*
X6592657Y-13892676D02*
X6478371Y-13892676D01*
X6535514Y-13892676D02*
X6535514Y-13692676D01*
X6516467Y-13721248D01*
X6497419Y-13740295D01*
X6478371Y-13749819D01*
X6687895Y-13892676D02*
X6725990Y-13892676D01*
X6745038Y-13883152D01*
X6754562Y-13873628D01*
X6773609Y-13845057D01*
X6783133Y-13806962D01*
X6783133Y-13730771D01*
X6773609Y-13711724D01*
X6764086Y-13702200D01*
X6745038Y-13692676D01*
X6706943Y-13692676D01*
X6687895Y-13702200D01*
X6678371Y-13711724D01*
X6668848Y-13730771D01*
X6668848Y-13778390D01*
X6678371Y-13797438D01*
X6687895Y-13806962D01*
X6706943Y-13816486D01*
X6745038Y-13816486D01*
X6764086Y-13806962D01*
X6773609Y-13797438D01*
X6783133Y-13778390D01*
X7021228Y-13892676D02*
X7021228Y-13692676D01*
X7106943Y-13892676D02*
X7106943Y-13787914D01*
X7097419Y-13768867D01*
X7078371Y-13759343D01*
X7049800Y-13759343D01*
X7030752Y-13768867D01*
X7021228Y-13778390D01*
X7230752Y-13892676D02*
X7211705Y-13883152D01*
X7202181Y-13873628D01*
X7192657Y-13854581D01*
X7192657Y-13797438D01*
X7202181Y-13778390D01*
X7211705Y-13768867D01*
X7230752Y-13759343D01*
X7259324Y-13759343D01*
X7278371Y-13768867D01*
X7287895Y-13778390D01*
X7297419Y-13797438D01*
X7297419Y-13854581D01*
X7287895Y-13873628D01*
X7278371Y-13883152D01*
X7259324Y-13892676D01*
X7230752Y-13892676D01*
X7411705Y-13892676D02*
X7392657Y-13883152D01*
X7383133Y-13864105D01*
X7383133Y-13692676D01*
X7564086Y-13883152D02*
X7545038Y-13892676D01*
X7506943Y-13892676D01*
X7487895Y-13883152D01*
X7478371Y-13864105D01*
X7478371Y-13787914D01*
X7487895Y-13768867D01*
X7506943Y-13759343D01*
X7545038Y-13759343D01*
X7564086Y-13768867D01*
X7573609Y-13787914D01*
X7573609Y-13806962D01*
X7478371Y-13826009D01*
X7649800Y-13883152D02*
X7668848Y-13892676D01*
X7706943Y-13892676D01*
X7725990Y-13883152D01*
X7735514Y-13864105D01*
X7735514Y-13854581D01*
X7725990Y-13835533D01*
X7706943Y-13826009D01*
X7678371Y-13826009D01*
X7659324Y-13816486D01*
X7649800Y-13797438D01*
X7649800Y-13787914D01*
X7659324Y-13768867D01*
X7678371Y-13759343D01*
X7706943Y-13759343D01*
X7725990Y-13768867D01*
X7802181Y-13968867D02*
X7811705Y-13959343D01*
X7830752Y-13930771D01*
X7840276Y-13911724D01*
X7849800Y-13883152D01*
X7859324Y-13835533D01*
X7859324Y-13797438D01*
X7849800Y-13749819D01*
X7840276Y-13721248D01*
X7830752Y-13702200D01*
X7811705Y-13673628D01*
X7802181Y-13664105D01*
D13*
X2839800Y-14066200D02*
G75*
G03*
X2839800Y-14066200I-40000J0D01*
G01*
D11*
X3135514Y-13956676D02*
X3154562Y-13956676D01*
X3173609Y-13966200D01*
X3183133Y-13975724D01*
X3192657Y-13994771D01*
X3202181Y-14032867D01*
X3202181Y-14080486D01*
X3192657Y-14118581D01*
X3183133Y-14137628D01*
X3173609Y-14147152D01*
X3154562Y-14156676D01*
X3135514Y-14156676D01*
X3116467Y-14147152D01*
X3106943Y-14137628D01*
X3097419Y-14118581D01*
X3087895Y-14080486D01*
X3087895Y-14032867D01*
X3097419Y-13994771D01*
X3106943Y-13975724D01*
X3116467Y-13966200D01*
X3135514Y-13956676D01*
X3287895Y-14137628D02*
X3297419Y-14147152D01*
X3287895Y-14156676D01*
X3278371Y-14147152D01*
X3287895Y-14137628D01*
X3287895Y-14156676D01*
X3411705Y-14042390D02*
X3392657Y-14032867D01*
X3383133Y-14023343D01*
X3373609Y-14004295D01*
X3373609Y-13994771D01*
X3383133Y-13975724D01*
X3392657Y-13966200D01*
X3411705Y-13956676D01*
X3449800Y-13956676D01*
X3468848Y-13966200D01*
X3478371Y-13975724D01*
X3487895Y-13994771D01*
X3487895Y-14004295D01*
X3478371Y-14023343D01*
X3468848Y-14032867D01*
X3449800Y-14042390D01*
X3411705Y-14042390D01*
X3392657Y-14051914D01*
X3383133Y-14061438D01*
X3373609Y-14080486D01*
X3373609Y-14118581D01*
X3383133Y-14137628D01*
X3392657Y-14147152D01*
X3411705Y-14156676D01*
X3449800Y-14156676D01*
X3468848Y-14147152D01*
X3478371Y-14137628D01*
X3487895Y-14118581D01*
X3487895Y-14080486D01*
X3478371Y-14061438D01*
X3468848Y-14051914D01*
X3449800Y-14042390D01*
X3611705Y-13956676D02*
X3630752Y-13956676D01*
X3649800Y-13966200D01*
X3659324Y-13975724D01*
X3668848Y-13994771D01*
X3678371Y-14032867D01*
X3678371Y-14080486D01*
X3668848Y-14118581D01*
X3659324Y-14137628D01*
X3649800Y-14147152D01*
X3630752Y-14156676D01*
X3611705Y-14156676D01*
X3592657Y-14147152D01*
X3583133Y-14137628D01*
X3573609Y-14118581D01*
X3564086Y-14080486D01*
X3564086Y-14032867D01*
X3573609Y-13994771D01*
X3583133Y-13975724D01*
X3592657Y-13966200D01*
X3611705Y-13956676D01*
X3802181Y-13956676D02*
X3821228Y-13956676D01*
X3840276Y-13966200D01*
X3849800Y-13975724D01*
X3859324Y-13994771D01*
X3868848Y-14032867D01*
X3868848Y-14080486D01*
X3859324Y-14118581D01*
X3849800Y-14137628D01*
X3840276Y-14147152D01*
X3821228Y-14156676D01*
X3802181Y-14156676D01*
X3783133Y-14147152D01*
X3773609Y-14137628D01*
X3764086Y-14118581D01*
X3754562Y-14080486D01*
X3754562Y-14032867D01*
X3764086Y-13994771D01*
X3773609Y-13975724D01*
X3783133Y-13966200D01*
X3802181Y-13956676D01*
X3954562Y-14156676D02*
X3954562Y-14023343D01*
X3954562Y-14042390D02*
X3964086Y-14032867D01*
X3983133Y-14023343D01*
X4011705Y-14023343D01*
X4030752Y-14032867D01*
X4040276Y-14051914D01*
X4040276Y-14156676D01*
X4040276Y-14051914D02*
X4049800Y-14032867D01*
X4068848Y-14023343D01*
X4097419Y-14023343D01*
X4116467Y-14032867D01*
X4125990Y-14051914D01*
X4125990Y-14156676D01*
X4221229Y-14156676D02*
X4221229Y-14023343D01*
X4221229Y-14042390D02*
X4230752Y-14032867D01*
X4249800Y-14023343D01*
X4278371Y-14023343D01*
X4297419Y-14032867D01*
X4306943Y-14051914D01*
X4306943Y-14156676D01*
X4306943Y-14051914D02*
X4316467Y-14032867D01*
X4335514Y-14023343D01*
X4364086Y-14023343D01*
X4383133Y-14032867D01*
X4392657Y-14051914D01*
X4392657Y-14156676D01*
X4783133Y-13947152D02*
X4611705Y-14204295D01*
X5040276Y-13956676D02*
X5059324Y-13956676D01*
X5078371Y-13966200D01*
X5087895Y-13975724D01*
X5097419Y-13994771D01*
X5106943Y-14032867D01*
X5106943Y-14080486D01*
X5097419Y-14118581D01*
X5087895Y-14137628D01*
X5078371Y-14147152D01*
X5059324Y-14156676D01*
X5040276Y-14156676D01*
X5021229Y-14147152D01*
X5011705Y-14137628D01*
X5002181Y-14118581D01*
X4992657Y-14080486D01*
X4992657Y-14032867D01*
X5002181Y-13994771D01*
X5011705Y-13975724D01*
X5021229Y-13966200D01*
X5040276Y-13956676D01*
X5192657Y-14137628D02*
X5202181Y-14147152D01*
X5192657Y-14156676D01*
X5183133Y-14147152D01*
X5192657Y-14137628D01*
X5192657Y-14156676D01*
X5325990Y-13956676D02*
X5345038Y-13956676D01*
X5364086Y-13966200D01*
X5373610Y-13975724D01*
X5383133Y-13994771D01*
X5392657Y-14032867D01*
X5392657Y-14080486D01*
X5383133Y-14118581D01*
X5373610Y-14137628D01*
X5364086Y-14147152D01*
X5345038Y-14156676D01*
X5325990Y-14156676D01*
X5306943Y-14147152D01*
X5297419Y-14137628D01*
X5287895Y-14118581D01*
X5278371Y-14080486D01*
X5278371Y-14032867D01*
X5287895Y-13994771D01*
X5297419Y-13975724D01*
X5306943Y-13966200D01*
X5325990Y-13956676D01*
X5459324Y-13956676D02*
X5583133Y-13956676D01*
X5516467Y-14032867D01*
X5545038Y-14032867D01*
X5564086Y-14042390D01*
X5573610Y-14051914D01*
X5583133Y-14070962D01*
X5583133Y-14118581D01*
X5573610Y-14137628D01*
X5564086Y-14147152D01*
X5545038Y-14156676D01*
X5487895Y-14156676D01*
X5468848Y-14147152D01*
X5459324Y-14137628D01*
X5773609Y-14156676D02*
X5659324Y-14156676D01*
X5716467Y-14156676D02*
X5716467Y-13956676D01*
X5697419Y-13985248D01*
X5678371Y-14004295D01*
X5659324Y-14013819D01*
X5954562Y-13956676D02*
X5859324Y-13956676D01*
X5849800Y-14051914D01*
X5859324Y-14042390D01*
X5878371Y-14032867D01*
X5925990Y-14032867D01*
X5945038Y-14042390D01*
X5954562Y-14051914D01*
X5964086Y-14070962D01*
X5964086Y-14118581D01*
X5954562Y-14137628D01*
X5945038Y-14147152D01*
X5925990Y-14156676D01*
X5878371Y-14156676D01*
X5859324Y-14147152D01*
X5849800Y-14137628D01*
X6040276Y-13956676D02*
X6040276Y-13994771D01*
X6116467Y-13956676D02*
X6116467Y-13994771D01*
X6411705Y-14232867D02*
X6402181Y-14223343D01*
X6383133Y-14194771D01*
X6373609Y-14175724D01*
X6364086Y-14147152D01*
X6354562Y-14099533D01*
X6354562Y-14061438D01*
X6364086Y-14013819D01*
X6373609Y-13985248D01*
X6383133Y-13966200D01*
X6402181Y-13937628D01*
X6411705Y-13928105D01*
X6583133Y-13956676D02*
X6487895Y-13956676D01*
X6478371Y-14051914D01*
X6487895Y-14042390D01*
X6506943Y-14032867D01*
X6554562Y-14032867D01*
X6573609Y-14042390D01*
X6583133Y-14051914D01*
X6592657Y-14070962D01*
X6592657Y-14118581D01*
X6583133Y-14137628D01*
X6573609Y-14147152D01*
X6554562Y-14156676D01*
X6506943Y-14156676D01*
X6487895Y-14147152D01*
X6478371Y-14137628D01*
X6716467Y-13956676D02*
X6735514Y-13956676D01*
X6754562Y-13966200D01*
X6764086Y-13975724D01*
X6773609Y-13994771D01*
X6783133Y-14032867D01*
X6783133Y-14080486D01*
X6773609Y-14118581D01*
X6764086Y-14137628D01*
X6754562Y-14147152D01*
X6735514Y-14156676D01*
X6716467Y-14156676D01*
X6697419Y-14147152D01*
X6687895Y-14137628D01*
X6678371Y-14118581D01*
X6668848Y-14080486D01*
X6668848Y-14032867D01*
X6678371Y-13994771D01*
X6687895Y-13975724D01*
X6697419Y-13966200D01*
X6716467Y-13956676D01*
X7021228Y-14156676D02*
X7021228Y-13956676D01*
X7106943Y-14156676D02*
X7106943Y-14051914D01*
X7097419Y-14032867D01*
X7078371Y-14023343D01*
X7049800Y-14023343D01*
X7030752Y-14032867D01*
X7021228Y-14042390D01*
X7230752Y-14156676D02*
X7211705Y-14147152D01*
X7202181Y-14137628D01*
X7192657Y-14118581D01*
X7192657Y-14061438D01*
X7202181Y-14042390D01*
X7211705Y-14032867D01*
X7230752Y-14023343D01*
X7259324Y-14023343D01*
X7278371Y-14032867D01*
X7287895Y-14042390D01*
X7297419Y-14061438D01*
X7297419Y-14118581D01*
X7287895Y-14137628D01*
X7278371Y-14147152D01*
X7259324Y-14156676D01*
X7230752Y-14156676D01*
X7411705Y-14156676D02*
X7392657Y-14147152D01*
X7383133Y-14128105D01*
X7383133Y-13956676D01*
X7564086Y-14147152D02*
X7545038Y-14156676D01*
X7506943Y-14156676D01*
X7487895Y-14147152D01*
X7478371Y-14128105D01*
X7478371Y-14051914D01*
X7487895Y-14032867D01*
X7506943Y-14023343D01*
X7545038Y-14023343D01*
X7564086Y-14032867D01*
X7573609Y-14051914D01*
X7573609Y-14070962D01*
X7478371Y-14090009D01*
X7649800Y-14147152D02*
X7668848Y-14156676D01*
X7706943Y-14156676D01*
X7725990Y-14147152D01*
X7735514Y-14128105D01*
X7735514Y-14118581D01*
X7725990Y-14099533D01*
X7706943Y-14090009D01*
X7678371Y-14090009D01*
X7659324Y-14080486D01*
X7649800Y-14061438D01*
X7649800Y-14051914D01*
X7659324Y-14032867D01*
X7678371Y-14023343D01*
X7706943Y-14023343D01*
X7725990Y-14032867D01*
X7802181Y-14232867D02*
X7811705Y-14223343D01*
X7830752Y-14194771D01*
X7840276Y-14175724D01*
X7849800Y-14147152D01*
X7859324Y-14099533D01*
X7859324Y-14061438D01*
X7849800Y-14013819D01*
X7840276Y-13985248D01*
X7830752Y-13966200D01*
X7811705Y-13937628D01*
X7802181Y-13928105D01*
D10*
X2789800Y-14280200D02*
X2789800Y-14380200D01*
X2739800Y-14330200D02*
X2839800Y-14330200D01*
D11*
X3202181Y-14420676D02*
X3087895Y-14420676D01*
X3145038Y-14420676D02*
X3145038Y-14220676D01*
X3125990Y-14249248D01*
X3106943Y-14268295D01*
X3087895Y-14277819D01*
X3287895Y-14401628D02*
X3297419Y-14411152D01*
X3287895Y-14420676D01*
X3278371Y-14411152D01*
X3287895Y-14401628D01*
X3287895Y-14420676D01*
X3421228Y-14220676D02*
X3440276Y-14220676D01*
X3459324Y-14230200D01*
X3468848Y-14239724D01*
X3478371Y-14258771D01*
X3487895Y-14296867D01*
X3487895Y-14344486D01*
X3478371Y-14382581D01*
X3468848Y-14401628D01*
X3459324Y-14411152D01*
X3440276Y-14420676D01*
X3421228Y-14420676D01*
X3402181Y-14411152D01*
X3392657Y-14401628D01*
X3383133Y-14382581D01*
X3373609Y-14344486D01*
X3373609Y-14296867D01*
X3383133Y-14258771D01*
X3392657Y-14239724D01*
X3402181Y-14230200D01*
X3421228Y-14220676D01*
X3611705Y-14220676D02*
X3630752Y-14220676D01*
X3649800Y-14230200D01*
X3659324Y-14239724D01*
X3668848Y-14258771D01*
X3678371Y-14296867D01*
X3678371Y-14344486D01*
X3668848Y-14382581D01*
X3659324Y-14401628D01*
X3649800Y-14411152D01*
X3630752Y-14420676D01*
X3611705Y-14420676D01*
X3592657Y-14411152D01*
X3583133Y-14401628D01*
X3573609Y-14382581D01*
X3564086Y-14344486D01*
X3564086Y-14296867D01*
X3573609Y-14258771D01*
X3583133Y-14239724D01*
X3592657Y-14230200D01*
X3611705Y-14220676D01*
X3802181Y-14220676D02*
X3821228Y-14220676D01*
X3840276Y-14230200D01*
X3849800Y-14239724D01*
X3859324Y-14258771D01*
X3868848Y-14296867D01*
X3868848Y-14344486D01*
X3859324Y-14382581D01*
X3849800Y-14401628D01*
X3840276Y-14411152D01*
X3821228Y-14420676D01*
X3802181Y-14420676D01*
X3783133Y-14411152D01*
X3773609Y-14401628D01*
X3764086Y-14382581D01*
X3754562Y-14344486D01*
X3754562Y-14296867D01*
X3764086Y-14258771D01*
X3773609Y-14239724D01*
X3783133Y-14230200D01*
X3802181Y-14220676D01*
X3954562Y-14420676D02*
X3954562Y-14287343D01*
X3954562Y-14306390D02*
X3964086Y-14296867D01*
X3983133Y-14287343D01*
X4011705Y-14287343D01*
X4030752Y-14296867D01*
X4040276Y-14315914D01*
X4040276Y-14420676D01*
X4040276Y-14315914D02*
X4049800Y-14296867D01*
X4068848Y-14287343D01*
X4097419Y-14287343D01*
X4116467Y-14296867D01*
X4125990Y-14315914D01*
X4125990Y-14420676D01*
X4221229Y-14420676D02*
X4221229Y-14287343D01*
X4221229Y-14306390D02*
X4230752Y-14296867D01*
X4249800Y-14287343D01*
X4278371Y-14287343D01*
X4297419Y-14296867D01*
X4306943Y-14315914D01*
X4306943Y-14420676D01*
X4306943Y-14315914D02*
X4316467Y-14296867D01*
X4335514Y-14287343D01*
X4364086Y-14287343D01*
X4383133Y-14296867D01*
X4392657Y-14315914D01*
X4392657Y-14420676D01*
X4783133Y-14211152D02*
X4611705Y-14468295D01*
X5040276Y-14220676D02*
X5059324Y-14220676D01*
X5078371Y-14230200D01*
X5087895Y-14239724D01*
X5097419Y-14258771D01*
X5106943Y-14296867D01*
X5106943Y-14344486D01*
X5097419Y-14382581D01*
X5087895Y-14401628D01*
X5078371Y-14411152D01*
X5059324Y-14420676D01*
X5040276Y-14420676D01*
X5021229Y-14411152D01*
X5011705Y-14401628D01*
X5002181Y-14382581D01*
X4992657Y-14344486D01*
X4992657Y-14296867D01*
X5002181Y-14258771D01*
X5011705Y-14239724D01*
X5021229Y-14230200D01*
X5040276Y-14220676D01*
X5192657Y-14401628D02*
X5202181Y-14411152D01*
X5192657Y-14420676D01*
X5183133Y-14411152D01*
X5192657Y-14401628D01*
X5192657Y-14420676D01*
X5325990Y-14220676D02*
X5345038Y-14220676D01*
X5364086Y-14230200D01*
X5373610Y-14239724D01*
X5383133Y-14258771D01*
X5392657Y-14296867D01*
X5392657Y-14344486D01*
X5383133Y-14382581D01*
X5373610Y-14401628D01*
X5364086Y-14411152D01*
X5345038Y-14420676D01*
X5325990Y-14420676D01*
X5306943Y-14411152D01*
X5297419Y-14401628D01*
X5287895Y-14382581D01*
X5278371Y-14344486D01*
X5278371Y-14296867D01*
X5287895Y-14258771D01*
X5297419Y-14239724D01*
X5306943Y-14230200D01*
X5325990Y-14220676D01*
X5459324Y-14220676D02*
X5583133Y-14220676D01*
X5516467Y-14296867D01*
X5545038Y-14296867D01*
X5564086Y-14306390D01*
X5573610Y-14315914D01*
X5583133Y-14334962D01*
X5583133Y-14382581D01*
X5573610Y-14401628D01*
X5564086Y-14411152D01*
X5545038Y-14420676D01*
X5487895Y-14420676D01*
X5468848Y-14411152D01*
X5459324Y-14401628D01*
X5678371Y-14420676D02*
X5716467Y-14420676D01*
X5735514Y-14411152D01*
X5745038Y-14401628D01*
X5764086Y-14373057D01*
X5773609Y-14334962D01*
X5773609Y-14258771D01*
X5764086Y-14239724D01*
X5754562Y-14230200D01*
X5735514Y-14220676D01*
X5697419Y-14220676D01*
X5678371Y-14230200D01*
X5668848Y-14239724D01*
X5659324Y-14258771D01*
X5659324Y-14306390D01*
X5668848Y-14325438D01*
X5678371Y-14334962D01*
X5697419Y-14344486D01*
X5735514Y-14344486D01*
X5754562Y-14334962D01*
X5764086Y-14325438D01*
X5773609Y-14306390D01*
X5945038Y-14287343D02*
X5945038Y-14420676D01*
X5897419Y-14211152D02*
X5849800Y-14354009D01*
X5973609Y-14354009D01*
X6040276Y-14220676D02*
X6040276Y-14258771D01*
X6116467Y-14220676D02*
X6116467Y-14258771D01*
X6411705Y-14496867D02*
X6402181Y-14487343D01*
X6383133Y-14458771D01*
X6373609Y-14439724D01*
X6364086Y-14411152D01*
X6354562Y-14363533D01*
X6354562Y-14325438D01*
X6364086Y-14277819D01*
X6373609Y-14249248D01*
X6383133Y-14230200D01*
X6402181Y-14201628D01*
X6411705Y-14192105D01*
X6468848Y-14220676D02*
X6592657Y-14220676D01*
X6525990Y-14296867D01*
X6554562Y-14296867D01*
X6573609Y-14306390D01*
X6583133Y-14315914D01*
X6592657Y-14334962D01*
X6592657Y-14382581D01*
X6583133Y-14401628D01*
X6573609Y-14411152D01*
X6554562Y-14420676D01*
X6497419Y-14420676D01*
X6478371Y-14411152D01*
X6468848Y-14401628D01*
X6706943Y-14306390D02*
X6687895Y-14296867D01*
X6678371Y-14287343D01*
X6668848Y-14268295D01*
X6668848Y-14258771D01*
X6678371Y-14239724D01*
X6687895Y-14230200D01*
X6706943Y-14220676D01*
X6745038Y-14220676D01*
X6764086Y-14230200D01*
X6773609Y-14239724D01*
X6783133Y-14258771D01*
X6783133Y-14268295D01*
X6773609Y-14287343D01*
X6764086Y-14296867D01*
X6745038Y-14306390D01*
X6706943Y-14306390D01*
X6687895Y-14315914D01*
X6678371Y-14325438D01*
X6668848Y-14344486D01*
X6668848Y-14382581D01*
X6678371Y-14401628D01*
X6687895Y-14411152D01*
X6706943Y-14420676D01*
X6745038Y-14420676D01*
X6764086Y-14411152D01*
X6773609Y-14401628D01*
X6783133Y-14382581D01*
X6783133Y-14344486D01*
X6773609Y-14325438D01*
X6764086Y-14315914D01*
X6745038Y-14306390D01*
X7021228Y-14420676D02*
X7021228Y-14220676D01*
X7106943Y-14420676D02*
X7106943Y-14315914D01*
X7097419Y-14296867D01*
X7078371Y-14287343D01*
X7049800Y-14287343D01*
X7030752Y-14296867D01*
X7021228Y-14306390D01*
X7230752Y-14420676D02*
X7211705Y-14411152D01*
X7202181Y-14401628D01*
X7192657Y-14382581D01*
X7192657Y-14325438D01*
X7202181Y-14306390D01*
X7211705Y-14296867D01*
X7230752Y-14287343D01*
X7259324Y-14287343D01*
X7278371Y-14296867D01*
X7287895Y-14306390D01*
X7297419Y-14325438D01*
X7297419Y-14382581D01*
X7287895Y-14401628D01*
X7278371Y-14411152D01*
X7259324Y-14420676D01*
X7230752Y-14420676D01*
X7411705Y-14420676D02*
X7392657Y-14411152D01*
X7383133Y-14392105D01*
X7383133Y-14220676D01*
X7564086Y-14411152D02*
X7545038Y-14420676D01*
X7506943Y-14420676D01*
X7487895Y-14411152D01*
X7478371Y-14392105D01*
X7478371Y-14315914D01*
X7487895Y-14296867D01*
X7506943Y-14287343D01*
X7545038Y-14287343D01*
X7564086Y-14296867D01*
X7573609Y-14315914D01*
X7573609Y-14334962D01*
X7478371Y-14354009D01*
X7649800Y-14411152D02*
X7668848Y-14420676D01*
X7706943Y-14420676D01*
X7725990Y-14411152D01*
X7735514Y-14392105D01*
X7735514Y-14382581D01*
X7725990Y-14363533D01*
X7706943Y-14354009D01*
X7678371Y-14354009D01*
X7659324Y-14344486D01*
X7649800Y-14325438D01*
X7649800Y-14315914D01*
X7659324Y-14296867D01*
X7678371Y-14287343D01*
X7706943Y-14287343D01*
X7725990Y-14296867D01*
X7802181Y-14496867D02*
X7811705Y-14487343D01*
X7830752Y-14458771D01*
X7840276Y-14439724D01*
X7849800Y-14411152D01*
X7859324Y-14363533D01*
X7859324Y-14325438D01*
X7849800Y-14277819D01*
X7840276Y-14249248D01*
X7830752Y-14230200D01*
X7811705Y-14201628D01*
X7802181Y-14192105D01*
D14*
X2824863Y-14630263D02*
X2824863Y-14558137D01*
X2752737Y-14558137D01*
X2752737Y-14630263D01*
X2824863Y-14630263D01*
D11*
X3202181Y-14684676D02*
X3087895Y-14684676D01*
X3145038Y-14684676D02*
X3145038Y-14484676D01*
X3125990Y-14513248D01*
X3106943Y-14532295D01*
X3087895Y-14541819D01*
X3287895Y-14665628D02*
X3297419Y-14675152D01*
X3287895Y-14684676D01*
X3278371Y-14675152D01*
X3287895Y-14665628D01*
X3287895Y-14684676D01*
X3421228Y-14484676D02*
X3440276Y-14484676D01*
X3459324Y-14494200D01*
X3468848Y-14503724D01*
X3478371Y-14522771D01*
X3487895Y-14560867D01*
X3487895Y-14608486D01*
X3478371Y-14646581D01*
X3468848Y-14665628D01*
X3459324Y-14675152D01*
X3440276Y-14684676D01*
X3421228Y-14684676D01*
X3402181Y-14675152D01*
X3392657Y-14665628D01*
X3383133Y-14646581D01*
X3373609Y-14608486D01*
X3373609Y-14560867D01*
X3383133Y-14522771D01*
X3392657Y-14503724D01*
X3402181Y-14494200D01*
X3421228Y-14484676D01*
X3564086Y-14503724D02*
X3573609Y-14494200D01*
X3592657Y-14484676D01*
X3640276Y-14484676D01*
X3659324Y-14494200D01*
X3668848Y-14503724D01*
X3678371Y-14522771D01*
X3678371Y-14541819D01*
X3668848Y-14570390D01*
X3554562Y-14684676D01*
X3678371Y-14684676D01*
X3802181Y-14484676D02*
X3821228Y-14484676D01*
X3840276Y-14494200D01*
X3849800Y-14503724D01*
X3859324Y-14522771D01*
X3868848Y-14560867D01*
X3868848Y-14608486D01*
X3859324Y-14646581D01*
X3849800Y-14665628D01*
X3840276Y-14675152D01*
X3821228Y-14684676D01*
X3802181Y-14684676D01*
X3783133Y-14675152D01*
X3773609Y-14665628D01*
X3764086Y-14646581D01*
X3754562Y-14608486D01*
X3754562Y-14560867D01*
X3764086Y-14522771D01*
X3773609Y-14503724D01*
X3783133Y-14494200D01*
X3802181Y-14484676D01*
X3954562Y-14684676D02*
X3954562Y-14551343D01*
X3954562Y-14570390D02*
X3964086Y-14560867D01*
X3983133Y-14551343D01*
X4011705Y-14551343D01*
X4030752Y-14560867D01*
X4040276Y-14579914D01*
X4040276Y-14684676D01*
X4040276Y-14579914D02*
X4049800Y-14560867D01*
X4068848Y-14551343D01*
X4097419Y-14551343D01*
X4116467Y-14560867D01*
X4125990Y-14579914D01*
X4125990Y-14684676D01*
X4221229Y-14684676D02*
X4221229Y-14551343D01*
X4221229Y-14570390D02*
X4230752Y-14560867D01*
X4249800Y-14551343D01*
X4278371Y-14551343D01*
X4297419Y-14560867D01*
X4306943Y-14579914D01*
X4306943Y-14684676D01*
X4306943Y-14579914D02*
X4316467Y-14560867D01*
X4335514Y-14551343D01*
X4364086Y-14551343D01*
X4383133Y-14560867D01*
X4392657Y-14579914D01*
X4392657Y-14684676D01*
X4783133Y-14475152D02*
X4611705Y-14732295D01*
X5040276Y-14484676D02*
X5059324Y-14484676D01*
X5078371Y-14494200D01*
X5087895Y-14503724D01*
X5097419Y-14522771D01*
X5106943Y-14560867D01*
X5106943Y-14608486D01*
X5097419Y-14646581D01*
X5087895Y-14665628D01*
X5078371Y-14675152D01*
X5059324Y-14684676D01*
X5040276Y-14684676D01*
X5021229Y-14675152D01*
X5011705Y-14665628D01*
X5002181Y-14646581D01*
X4992657Y-14608486D01*
X4992657Y-14560867D01*
X5002181Y-14522771D01*
X5011705Y-14503724D01*
X5021229Y-14494200D01*
X5040276Y-14484676D01*
X5192657Y-14665628D02*
X5202181Y-14675152D01*
X5192657Y-14684676D01*
X5183133Y-14675152D01*
X5192657Y-14665628D01*
X5192657Y-14684676D01*
X5325990Y-14484676D02*
X5345038Y-14484676D01*
X5364086Y-14494200D01*
X5373610Y-14503724D01*
X5383133Y-14522771D01*
X5392657Y-14560867D01*
X5392657Y-14608486D01*
X5383133Y-14646581D01*
X5373610Y-14665628D01*
X5364086Y-14675152D01*
X5345038Y-14684676D01*
X5325990Y-14684676D01*
X5306943Y-14675152D01*
X5297419Y-14665628D01*
X5287895Y-14646581D01*
X5278371Y-14608486D01*
X5278371Y-14560867D01*
X5287895Y-14522771D01*
X5297419Y-14503724D01*
X5306943Y-14494200D01*
X5325990Y-14484676D01*
X5564086Y-14551343D02*
X5564086Y-14684676D01*
X5516467Y-14475152D02*
X5468848Y-14618009D01*
X5592657Y-14618009D01*
X5706943Y-14484676D02*
X5725990Y-14484676D01*
X5745038Y-14494200D01*
X5754562Y-14503724D01*
X5764086Y-14522771D01*
X5773609Y-14560867D01*
X5773609Y-14608486D01*
X5764086Y-14646581D01*
X5754562Y-14665628D01*
X5745038Y-14675152D01*
X5725990Y-14684676D01*
X5706943Y-14684676D01*
X5687895Y-14675152D01*
X5678371Y-14665628D01*
X5668848Y-14646581D01*
X5659324Y-14608486D01*
X5659324Y-14560867D01*
X5668848Y-14522771D01*
X5678371Y-14503724D01*
X5687895Y-14494200D01*
X5706943Y-14484676D01*
X5849800Y-14503724D02*
X5859324Y-14494200D01*
X5878371Y-14484676D01*
X5925990Y-14484676D01*
X5945038Y-14494200D01*
X5954562Y-14503724D01*
X5964086Y-14522771D01*
X5964086Y-14541819D01*
X5954562Y-14570390D01*
X5840276Y-14684676D01*
X5964086Y-14684676D01*
X6040276Y-14484676D02*
X6040276Y-14522771D01*
X6116467Y-14484676D02*
X6116467Y-14522771D01*
X6411705Y-14760867D02*
X6402181Y-14751343D01*
X6383133Y-14722771D01*
X6373609Y-14703724D01*
X6364086Y-14675152D01*
X6354562Y-14627533D01*
X6354562Y-14589438D01*
X6364086Y-14541819D01*
X6373609Y-14513248D01*
X6383133Y-14494200D01*
X6402181Y-14465628D01*
X6411705Y-14456105D01*
X6573609Y-14551343D02*
X6573609Y-14684676D01*
X6525990Y-14475152D02*
X6478371Y-14618009D01*
X6602181Y-14618009D01*
X6659324Y-14484676D02*
X6783133Y-14484676D01*
X6716467Y-14560867D01*
X6745038Y-14560867D01*
X6764086Y-14570390D01*
X6773609Y-14579914D01*
X6783133Y-14598962D01*
X6783133Y-14646581D01*
X6773609Y-14665628D01*
X6764086Y-14675152D01*
X6745038Y-14684676D01*
X6687895Y-14684676D01*
X6668848Y-14675152D01*
X6659324Y-14665628D01*
X7021228Y-14684676D02*
X7021228Y-14484676D01*
X7106943Y-14684676D02*
X7106943Y-14579914D01*
X7097419Y-14560867D01*
X7078371Y-14551343D01*
X7049800Y-14551343D01*
X7030752Y-14560867D01*
X7021228Y-14570390D01*
X7230752Y-14684676D02*
X7211705Y-14675152D01*
X7202181Y-14665628D01*
X7192657Y-14646581D01*
X7192657Y-14589438D01*
X7202181Y-14570390D01*
X7211705Y-14560867D01*
X7230752Y-14551343D01*
X7259324Y-14551343D01*
X7278371Y-14560867D01*
X7287895Y-14570390D01*
X7297419Y-14589438D01*
X7297419Y-14646581D01*
X7287895Y-14665628D01*
X7278371Y-14675152D01*
X7259324Y-14684676D01*
X7230752Y-14684676D01*
X7411705Y-14684676D02*
X7392657Y-14675152D01*
X7383133Y-14656105D01*
X7383133Y-14484676D01*
X7564086Y-14675152D02*
X7545038Y-14684676D01*
X7506943Y-14684676D01*
X7487895Y-14675152D01*
X7478371Y-14656105D01*
X7478371Y-14579914D01*
X7487895Y-14560867D01*
X7506943Y-14551343D01*
X7545038Y-14551343D01*
X7564086Y-14560867D01*
X7573609Y-14579914D01*
X7573609Y-14598962D01*
X7478371Y-14618009D01*
X7649800Y-14675152D02*
X7668848Y-14684676D01*
X7706943Y-14684676D01*
X7725990Y-14675152D01*
X7735514Y-14656105D01*
X7735514Y-14646581D01*
X7725990Y-14627533D01*
X7706943Y-14618009D01*
X7678371Y-14618009D01*
X7659324Y-14608486D01*
X7649800Y-14589438D01*
X7649800Y-14579914D01*
X7659324Y-14560867D01*
X7678371Y-14551343D01*
X7706943Y-14551343D01*
X7725990Y-14560867D01*
X7802181Y-14760867D02*
X7811705Y-14751343D01*
X7830752Y-14722771D01*
X7840276Y-14703724D01*
X7849800Y-14675152D01*
X7859324Y-14627533D01*
X7859324Y-14589438D01*
X7849800Y-14541819D01*
X7840276Y-14513248D01*
X7830752Y-14494200D01*
X7811705Y-14465628D01*
X7802181Y-14456105D01*
M02*
